<?xml version="1.0" standalone="no"?><!DOCTYPE svg PUBLIC "-//W3C//DTD SVG 1.1//EN"
        "http://www.w3.org/Graphics/SVG/1.1/DTD/svg11.dtd">
<svg t="1623251462819" class="icon" viewBox="0 0 1024 1024" version="1.1" xmlns="http://www.w3.org/2000/svg" p-id="9999"
     xmlns:xlink="http://www.w3.org/1999/xlink" width="200" height="200">
    <defs>
        <style type="text/css"></style>
    </defs>
    <path d="M810.666667 64a128 128 0 0 1 128 128v640a128 128 0 0 1-128 128H256a128 128 0 0 1-128-128v-128H72.533333a8.533333 8.533333 0 0 1-8.533333-8.533333v-46.933334c0-4.693333 3.84-8.533333 8.533333-8.533333H128V384H72.533333a8.533333 8.533333 0 0 1-8.533333-8.533333v-46.933334c0-4.693333 3.84-8.533333 8.533333-8.533333H128V192a128 128 0 0 1 128-128h554.666667z m0 64H256a64 64 0 0 0-63.893333 60.245333L192 192v640a64 64 0 0 0 60.245333 63.893333L256 896h554.666667a64 64 0 0 0 63.893333-60.245333L874.666667 832V192a64 64 0 0 0-60.245334-63.893333L810.666667 128z m-155.029334 132.202667l33.173334 33.194666a8.533333 8.533333 0 0 1 0 12.053334L588.906667 405.333333H716.8c4.693333 0 8.533333 3.84 8.533333 8.533334v46.933333a8.533333 8.533333 0 0 1-8.533333 8.533333H576v64h140.8c4.693333 0 8.533333 3.84 8.533333 8.533334v46.933333a8.533333 8.533333 0 0 1-8.533333 8.533333H576v140.8a8.533333 8.533333 0 0 1-8.533333 8.533334h-46.933334a8.533333 8.533333 0 0 1-8.533333-8.533334V597.333333h-140.8a8.533333 8.533333 0 0 1-8.533333-8.533333v-46.933333c0-4.693333 3.84-8.533333 8.533333-8.533334H512v-64h-140.8a8.533333 8.533333 0 0 1-8.533333-8.533333v-46.933333c0-4.693333 3.84-8.533333 8.533333-8.533334h127.872l-99.882667-99.882666a8.533333 8.533333 0 0 1 0-12.053334l33.173334-33.194666a8.533333 8.533333 0 0 1 12.074666 0l99.562667 99.562666 99.562667-99.562666a8.533333 8.533333 0 0 1 12.074666 0z"
          p-id="10000"></path>
</svg>