<?xml version="1.0" standalone="no"?><!DOCTYPE svg PUBLIC "-//W3C//DTD SVG 1.1//EN" "http://www.w3.org/Graphics/SVG/1.1/DTD/svg11.dtd"><svg t="1623251450397" class="icon" viewBox="0 0 1024 1024" version="1.1" xmlns="http://www.w3.org/2000/svg" p-id="9171" xmlns:xlink="http://www.w3.org/1999/xlink" width="200" height="200"><defs><style type="text/css"></style></defs><path d="M518.72 85.333333a203.050667 203.050667 0 0 1 203.050667 203.050667v96.469333c0 56.298667-22.613333 110.229333-62.805334 149.674667l-42.794666 42.026667a3.562667 3.562667 0 0 0-1.066667 2.538666v6.016c0 0.405333 0.234667 0.768 0.597333 0.938667l295.808 139.413333a103.104 103.104 0 0 1 59.157334 93.269334v10.752A87.850667 87.850667 0 0 1 882.816 917.333333H141.184c-46.442667 0-84.8-36.16-87.722667-83.328l-0.128-4.522666v-10.752c0-37.717333 20.586667-72.362667 54.421334-90.88l4.736-2.389334 296.192-139.562666c0.085333 0.042667 0.128 0.256 0.085333 0.746666l0.128-1.536v-6.016c0-0.853333-0.298667-1.642667 0.213333-1.066666l-1.28-1.493334-42.794666-42.005333a210.112 210.112 0 0 1-62.698667-142.613333l-0.106667-7.061334v-96.469333c0-109.781333 87.253333-199.594667 197.226667-202.965333L505.28 85.333333z m0 64h-12.949333l-4.842667 0.064a139.050667 139.050667 0 0 0-134.698667 138.986667v95.872l0.085334 5.909333a145.770667 145.770667 0 0 0 43.562666 98.709334l43.904 43.157333 3.456 3.84c10.112 12.117333 15.658667 27.392 15.658667 43.221333l-0.042667 7.552-0.256 4.693334a65.024 65.024 0 0 1-37.013333 52.608L140.650667 782.912l-2.986667 1.514667a39.104 39.104 0 0 0-20.330667 34.304v9.749333l0.042667 2.538667A23.850667 23.850667 0 0 0 141.184 853.333333h741.632c13.162667 0 23.850667-10.666667 23.850667-23.850666v-10.752c0-15.146667-8.746667-28.928-22.442667-35.392l-295.808-139.392a65.024 65.024 0 0 1-37.312-58.837334v-6.016c0-18.133333 7.296-35.498667 20.224-48.213333l42.794667-42.026667a145.770667 145.770667 0 0 0 43.648-104v-96.469333c0-76.8-62.250667-139.050667-139.050667-139.050667zM951.466667 533.333333c4.693333 0 8.533333 3.84 8.533333 8.533334v46.933333a8.533333 8.533333 0 0 1-8.533333 8.533333h-89.6a8.533333 8.533333 0 0 1-8.533334-8.533333v-46.933333c0-4.693333 3.84-8.533333 8.533334-8.533334h89.6z m0-128c4.693333 0 8.533333 3.84 8.533333 8.533334v46.933333a8.533333 8.533333 0 0 1-8.533333 8.533333h-153.6a8.533333 8.533333 0 0 1-8.533334-8.533333v-46.933333c0-4.693333 3.84-8.533333 8.533334-8.533334h153.6z m0-128c4.693333 0 8.533333 3.84 8.533333 8.533334v46.933333a8.533333 8.533333 0 0 1-8.533333 8.533333h-153.6a8.533333 8.533333 0 0 1-8.533334-8.533333v-46.933333c0-4.693333 3.84-8.533333 8.533334-8.533334h153.6z"  p-id="9172"></path></svg>