<?xml version="1.0" standalone="no"?><!DOCTYPE svg PUBLIC "-//W3C//DTD SVG 1.1//EN" "http://www.w3.org/Graphics/SVG/1.1/DTD/svg11.dtd"><svg t="1623251369381" class="icon" viewBox="0 0 1024 1024" version="1.1" xmlns="http://www.w3.org/2000/svg" p-id="5202" xmlns:xlink="http://www.w3.org/1999/xlink" width="200" height="200"><defs><style type="text/css"></style></defs><path d="M512 42.666667c259.2 0 469.333333 210.133333 469.333333 469.333333s-210.133333 469.333333-469.333333 469.333333S42.666667 771.2 42.666667 512 252.8 42.666667 512 42.666667z m0 64C288.149333 106.666667 106.666667 288.149333 106.666667 512s181.482667 405.333333 405.333333 405.333333 405.333333-181.482667 405.333333-405.333333S735.850667 106.666667 512 106.666667z m0 448a425.066667 425.066667 0 0 1 187.242667 43.2 8.533333 8.533333 0 0 1 4.778666 7.68V666.048a4.266667 4.266667 0 0 1-6.464 3.669333c-4.629333-2.773333-8.341333-4.906667-11.136-6.464A361.045333 361.045333 0 0 0 512 618.666667a361.024 361.024 0 0 0-185.557333 51.029333 4.266667 4.266667 0 0 1-6.464-3.648v-60.544a8.533333 8.533333 0 0 1 4.8-7.658667A425.045333 425.045333 0 0 1 512 554.666667z m-149.333333-170.666667a42.666667 42.666667 0 1 1 0 85.333333 42.666667 42.666667 0 0 1 0-85.333333z m298.666666 0a42.666667 42.666667 0 1 1 0 85.333333 42.666667 42.666667 0 0 1 0-85.333333z"  p-id="5203"></path></svg>