<?xml version="1.0" standalone="no"?><!DOCTYPE svg PUBLIC "-//W3C//DTD SVG 1.1//EN"
        "http://www.w3.org/Graphics/SVG/1.1/DTD/svg11.dtd">
<svg t="1623251494494" class="icon" viewBox="0 0 1024 1024" version="1.1" xmlns="http://www.w3.org/2000/svg"
     p-id="11649" xmlns:xlink="http://www.w3.org/1999/xlink" width="200" height="200">
    <defs>
        <style type="text/css"></style>
    </defs>
    <path d="M874.666667 277.333333a85.333333 85.333333 0 0 1 85.333333 85.333334v448a85.333333 85.333333 0 0 1-85.333333 85.333333h-85.333334a85.333333 85.333333 0 0 1-85.333333-85.333333V362.666667a85.333333 85.333333 0 0 1 85.333333-85.333334h85.333334zM554.666667 128a85.333333 85.333333 0 0 1 85.333333 85.333333v597.333334a85.333333 85.333333 0 0 1-85.333333 85.333333h-85.333334a85.333333 85.333333 0 0 1-85.333333-85.333333V213.333333a85.333333 85.333333 0 0 1 85.333333-85.333333h85.333334zM234.666667 490.666667a85.333333 85.333333 0 0 1 85.333333 85.333333v234.666667a85.333333 85.333333 0 0 1-85.333333 85.333333H149.333333a85.333333 85.333333 0 0 1-85.333333-85.333333V576a85.333333 85.333333 0 0 1 85.333333-85.333333h85.333334z m640-149.333334h-85.333334a21.333333 21.333333 0 0 0-21.184 18.837334L768 362.666667v448a21.333333 21.333333 0 0 0 18.837333 21.184L789.333333 832h85.333334a21.333333 21.333333 0 0 0 21.184-18.837333L896 810.666667V362.666667a21.333333 21.333333 0 0 0-18.837333-21.184L874.666667 341.333333zM554.666667 192h-85.333334a21.333333 21.333333 0 0 0-21.184 18.837333L448 213.333333v597.333334a21.333333 21.333333 0 0 0 18.837333 21.184L469.333333 832h85.333334a21.333333 21.333333 0 0 0 21.184-18.837333L576 810.666667V213.333333a21.333333 21.333333 0 0 0-18.837333-21.184L554.666667 192zM234.666667 554.666667H149.333333a21.333333 21.333333 0 0 0-21.184 18.837333L128 576v234.666667a21.333333 21.333333 0 0 0 18.837333 21.184L149.333333 832h85.333334a21.333333 21.333333 0 0 0 21.184-18.837333L256 810.666667V576a21.333333 21.333333 0 0 0-18.837333-21.184L234.666667 554.666667z"
          p-id="11650"></path>
</svg>