<?xml version="1.0" standalone="no"?><!DOCTYPE svg PUBLIC "-//W3C//DTD SVG 1.1//EN"
        "http://www.w3.org/Graphics/SVG/1.1/DTD/svg11.dtd">
<svg t="1623251428297" class="icon" viewBox="0 0 1024 1024" version="1.1" xmlns="http://www.w3.org/2000/svg" p-id="8069"
     xmlns:xlink="http://www.w3.org/1999/xlink" width="200" height="200">
    <defs>
        <style type="text/css"></style>
    </defs>
    <path d="M789.333333 64a170.666667 170.666667 0 0 1 170.666667 170.666667v554.666666a170.666667 170.666667 0 0 1-170.666667 170.666667H234.666667a170.666667 170.666667 0 0 1-170.666667-170.666667V234.666667a170.666667 170.666667 0 0 1 170.666667-170.666667h554.666666zM469.333333 533.333333H128v256a106.666667 106.666667 0 0 0 102.037333 106.56L234.666667 896h234.666666V533.333333zM789.333333 128H533.333333v768h256a106.666667 106.666667 0 0 0 106.56-102.037333L896 789.333333V234.666667a106.666667 106.666667 0 0 0-102.037333-106.56L789.333333 128zM396.8 682.666667c4.693333 0 8.533333 3.84 8.533333 8.533333v46.933333a8.533333 8.533333 0 0 1-8.533333 8.533334h-174.933333a8.533333 8.533333 0 0 1-8.533334-8.533334v-46.933333c0-4.693333 3.84-8.533333 8.533334-8.533333h174.933333z m405.333333-149.333334c4.693333 0 8.533333 3.84 8.533334 8.533334v46.933333a8.533333 8.533333 0 0 1-8.533334 8.533333h-174.933333a8.533333 8.533333 0 0 1-8.533333-8.533333v-46.933333c0-4.693333 3.84-8.533333 8.533333-8.533334h174.933333z m0-106.666666c4.693333 0 8.533333 3.84 8.533334 8.533333v46.933333a8.533333 8.533333 0 0 1-8.533334 8.533334h-174.933333a8.533333 8.533333 0 0 1-8.533333-8.533334v-46.933333c0-4.693333 3.84-8.533333 8.533333-8.533333h174.933333zM469.333333 128H234.666667a106.666667 106.666667 0 0 0-106.56 102.037333L128 234.666667v234.666666h341.333333V128z m-136.533333 85.333333c4.693333 0 8.533333 3.84 8.533333 8.533334V277.333333h55.466667c4.693333 0 8.533333 3.84 8.533333 8.533334v46.933333a8.533333 8.533333 0 0 1-8.533333 8.533333H341.333333v55.466667a8.533333 8.533333 0 0 1-8.533333 8.533333h-46.933333a8.533333 8.533333 0 0 1-8.533334-8.533333V341.333333h-55.466666a8.533333 8.533333 0 0 1-8.533334-8.533333v-46.933333c0-4.693333 3.84-8.533333 8.533334-8.533334H277.333333v-55.466666c0-4.693333 3.84-8.533333 8.533334-8.533334h46.933333z"
          p-id="8070"></path>
</svg>