<?xml version="1.0" standalone="no"?><!DOCTYPE svg PUBLIC "-//W3C//DTD SVG 1.1//EN"
        "http://www.w3.org/Graphics/SVG/1.1/DTD/svg11.dtd">
<svg t="1623251474522" class="icon" viewBox="0 0 1024 1024" version="1.1" xmlns="http://www.w3.org/2000/svg"
     p-id="10688" xmlns:xlink="http://www.w3.org/1999/xlink" width="200" height="200">
    <defs>
        <style type="text/css"></style>
    </defs>
    <path d="M512 64c259.2 0 469.333333 200.576 469.333333 448s-210.133333 448-469.333333 448a484.48 484.48 0 0 1-232.725333-58.88l-116.394667 50.645333a42.666667 42.666667 0 0 1-58.517333-49.002666l29.76-125.013334C76.629333 703.402667 42.666667 611.477333 42.666667 512 42.666667 264.576 252.8 64 512 64z m0 64C287.488 128 106.666667 300.586667 106.666667 512c0 79.573333 25.557333 155.434667 72.554666 219.285333l5.525334 7.317334 18.709333 24.192-26.965333 113.237333 105.984-46.08 27.477333 15.018667C370.858667 878.229333 439.978667 896 512 896c224.512 0 405.333333-172.586667 405.333333-384S736.512 128 512 128z m-100.309333 234.666667a8.533333 8.533333 0 0 1 6.037333 2.496l93.909333 93.909333 93.866667-93.909333a8.533333 8.533333 0 0 1 6.058667-2.496h66.389333a8.533333 8.533333 0 0 1 6.037333 14.570666l-127.104 127.082667 121.109334 121.109333a8.533333 8.533333 0 0 1-6.037334 14.570667h-66.346666a8.533333 8.533333 0 0 1-6.037334-2.496l-87.936-87.936-87.957333 87.936a8.533333 8.533333 0 0 1-6.037333 2.496h-66.346667a8.533333 8.533333 0 0 1-6.016-14.570667l121.109333-121.109333-127.104-127.082667a8.533333 8.533333 0 0 1 6.037334-14.570666h66.368z"
          p-id="10689"></path>
</svg>