<?xml version="1.0" standalone="no"?><!DOCTYPE svg PUBLIC "-//W3C//DTD SVG 1.1//EN" "http://www.w3.org/Graphics/SVG/1.1/DTD/svg11.dtd"><svg t="1623251511091" class="icon" viewBox="0 0 1024 1024" version="1.1" xmlns="http://www.w3.org/2000/svg" p-id="12752" xmlns:xlink="http://www.w3.org/1999/xlink" width="200" height="200"><defs><style type="text/css"></style></defs><path d="M160 682.666667a96 96 0 1 1 0 192 96 96 0 0 1 0-192z m0 64a32 32 0 1 0 0 64 32 32 0 0 0 0-64z m791.466667 0c4.693333 0 8.533333 3.84 8.533333 8.533333v46.933333a8.533333 8.533333 0 0 1-8.533333 8.533334H328.533333a8.533333 8.533333 0 0 1-8.533333-8.533334v-46.933333c0-4.693333 3.84-8.533333 8.533333-8.533333h622.933334zM160 405.333333a96 96 0 1 1 0 192 96 96 0 0 1 0-192z m0 64a32 32 0 1 0 0 64 32 32 0 0 0 0-64z m791.466667 0c4.693333 0 8.533333 3.84 8.533333 8.533334v46.933333a8.533333 8.533333 0 0 1-8.533333 8.533333H328.533333a8.533333 8.533333 0 0 1-8.533333-8.533333v-46.933333c0-4.693333 3.84-8.533333 8.533333-8.533334h622.933334zM160 128a96 96 0 1 1 0 192 96 96 0 0 1 0-192z m0 64a32 32 0 1 0 0 64 32 32 0 0 0 0-64z m791.466667 0c4.693333 0 8.533333 3.84 8.533333 8.533333v46.933334a8.533333 8.533333 0 0 1-8.533333 8.533333H328.533333a8.533333 8.533333 0 0 1-8.533333-8.533333V200.533333c0-4.693333 3.84-8.533333 8.533333-8.533333h622.933334z"  p-id="12753"></path></svg>