<?xml version="1.0" standalone="no"?><!DOCTYPE svg PUBLIC "-//W3C//DTD SVG 1.1//EN" "http://www.w3.org/Graphics/SVG/1.1/DTD/svg11.dtd"><svg t="1623251536264" class="icon" viewBox="0 0 1024 1024" version="1.1" xmlns="http://www.w3.org/2000/svg" p-id="14128" xmlns:xlink="http://www.w3.org/1999/xlink" width="200" height="200"><defs><style type="text/css"></style></defs><path d="M150.933333 170.666667a8.533333 8.533333 0 0 1 6.037334 2.496l708.266666 708.266666a8.533333 8.533333 0 0 1-6.037333 14.549334h-66.346667a8.533333 8.533333 0 0 1-6.037333-2.496l-189.504-189.504 0.021333 93.610666a85.333333 85.333333 0 0 1-129.237333 73.173334l-171.242667-102.784L192 768a85.333333 85.333333 0 0 1-85.333333-85.333333V341.333333a85.333333 85.333333 0 0 1 50.218666-77.802666l-78.314666-78.293334A8.533333 8.533333 0 0 1 84.608 170.666667h66.346667zM213.333333 320H192a21.333333 21.333333 0 0 0-21.184 18.837333L170.666667 341.333333v341.333334a21.333333 21.333333 0 0 0 18.837333 21.184L192 704h122.581333l186.453334 111.872a21.333333 21.333333 0 0 0 32.149333-15.786667l0.149333-2.496-0.021333-157.610666-320-320z m614.698667-108.906667l0.042667 0.085334a722.773333 722.773333 0 0 1 69.653333 310.442666 723.626667 723.626667 0 0 1-47.701333 259.242667l-50.069334-50.069333a660.650667 660.650667 0 0 0 33.770667-209.173334 658.986667 658.986667 0 0 0-63.296-282.602666 8.533333 8.533333 0 0 1 3.968-11.306667l14.293333-6.976 16.213334-7.872 11.712-5.717333a8.533333 8.533333 0 0 1 11.413333 3.946666z m-115.114667 56.042667l0.042667 0.085333a595.221333 595.221333 0 0 1 56.746667 254.4c0 54.634667-7.317333 107.562667-21.056 157.845334L695.466667 626.261333a535.893333 535.893333 0 0 0 10.24-104.64 531.541333 531.541333 0 0 0-50.432-226.581333 8.533333 8.533333 0 0 1 3.989333-11.306667c3.072-1.493333 5.546667-2.709333 7.509333-3.626666l27.349334-13.333334 7.381333-3.584a8.533333 8.533333 0 0 1 11.413333 3.946667zM585.173333 180.437333a85.333333 85.333333 0 0 1 12.16 43.904l-0.021333 303.786667-64-63.957333L533.333333 224.341333a21.333333 21.333333 0 0 0-1.706666-8.405333l-1.344-2.56a21.333333 21.333333 0 0 0-27.050667-8.490667l-2.218667 1.173334-141.141333 84.650666-46.656-46.634666 154.88-92.906667a85.333333 85.333333 0 0 1 117.077333 29.269333z"  p-id="14129"></path></svg>