<?xml version="1.0" standalone="no"?><!DOCTYPE svg PUBLIC "-//W3C//DTD SVG 1.1//EN" "http://www.w3.org/Graphics/SVG/1.1/DTD/svg11.dtd"><svg t="1623251317710" class="icon" viewBox="0 0 1024 1024" version="1.1" xmlns="http://www.w3.org/2000/svg" p-id="2994" xmlns:xlink="http://www.w3.org/1999/xlink" width="200" height="200"><defs><style type="text/css"></style></defs><path d="M512 42.666667c259.2 0 469.333333 210.133333 469.333333 469.333333s-210.133333 469.333333-469.333333 469.333333S42.666667 771.2 42.666667 512 252.8 42.666667 512 42.666667z m0 64C288.149333 106.666667 106.666667 288.149333 106.666667 512s181.482667 405.333333 405.333333 405.333333 405.333333-181.482667 405.333333-405.333333S735.850667 106.666667 512 106.666667z m-104.746667 256a8.533333 8.533333 0 0 1 6.037334 2.496L512 463.850667l98.688-98.688a8.533333 8.533333 0 0 1 6.037333-2.496h66.346667a8.533333 8.533333 0 0 1 6.037333 14.570666l-131.84 131.861334 137.642667 137.664a8.533333 8.533333 0 0 1-6.037333 14.570666h-66.346667a8.533333 8.533333 0 0 1-6.037333-2.496L512 554.346667l-104.512 104.490666a8.533333 8.533333 0 0 1-6.037333 2.496h-66.346667a8.533333 8.533333 0 0 1-6.016-14.570666l137.664-137.664-131.861333-131.861334A8.533333 8.533333 0 0 1 340.906667 362.666667h66.346666z"  p-id="2995"></path></svg>