<?xml version="1.0" standalone="no"?><!DOCTYPE svg PUBLIC "-//W3C//DTD SVG 1.1//EN"
        "http://www.w3.org/Graphics/SVG/1.1/DTD/svg11.dtd">
<svg t="1623251331052" class="icon" viewBox="0 0 1024 1024" version="1.1" xmlns="http://www.w3.org/2000/svg" p-id="3408"
     xmlns:xlink="http://www.w3.org/1999/xlink" width="200" height="200">
    <defs>
        <style type="text/css"></style>
    </defs>
    <path d="M512 64c247.424 0 448 200.576 448 448s-200.576 448-448 448S64 759.424 64 512 264.576 64 512 64z m0 64C299.925333 128 128 299.925333 128 512s171.925333 384 384 384 384-171.925333 384-384S724.074667 128 512 128z m104.32 165.717333l33.173333 33.194667a8.533333 8.533333 0 0 1 0 12.053333L561.770667 426.666667H674.133333c4.693333 0 8.533333 3.84 8.533334 8.533333v46.933333a8.533333 8.533333 0 0 1-8.533334 8.533334H554.666667v42.666666h119.466666c4.693333 0 8.533333 3.84 8.533334 8.533334v46.933333a8.533333 8.533333 0 0 1-8.533334 8.533333H554.666667v119.466667a8.533333 8.533333 0 0 1-8.533334 8.533333h-46.933333a8.533333 8.533333 0 0 1-8.533333-8.533333V597.333333h-119.466667a8.533333 8.533333 0 0 1-8.533333-8.533333v-46.933333c0-4.693333 3.84-8.533333 8.533333-8.533334H490.666667v-42.666666h-119.466667a8.533333 8.533333 0 0 1-8.533333-8.533334v-46.933333c0-4.693333 3.84-8.533333 8.533333-8.533333h106.538667l-87.701334-87.68a8.533333 8.533333 0 0 1 0-12.074667l33.173334-33.194667a8.533333 8.533333 0 0 1 12.074666 0l84.48 84.48 84.48-84.48a8.533333 8.533333 0 0 1 12.053334 0z"
          p-id="3409"></path>
</svg>