<?xml version="1.0" standalone="no"?><!DOCTYPE svg PUBLIC "-//W3C//DTD SVG 1.1//EN" "http://www.w3.org/Graphics/SVG/1.1/DTD/svg11.dtd"><svg t="1623251426021" class="icon" viewBox="0 0 1024 1024" version="1.1" xmlns="http://www.w3.org/2000/svg" p-id="7931" xmlns:xlink="http://www.w3.org/1999/xlink" width="200" height="200"><defs><style type="text/css"></style></defs><path d="M789.333333 64a128 128 0 0 1 128 128v607.488l32.64-7.744 1.493334-0.149333a8.533333 8.533333 0 0 1 8.362666 6.826666l0.170667 1.706667v46.464a8.533333 8.533333 0 0 1-4.992 7.765333l-1.557333 0.533334-439.466667 104.64a8.533333 8.533333 0 0 1-3.968 0l-439.466667-104.64A8.533333 8.533333 0 0 1 64 846.592v-46.464a8.533333 8.533333 0 0 1 10.517333-8.298667L106.666667 799.488V192a128 128 0 0 1 128-128h554.666666z m0 64H234.666667a64 64 0 0 0-63.893334 60.245333L170.666667 192v622.72l339.349333 80.810667a8.533333 8.533333 0 0 0 3.968 0L853.333333 814.72V192a64 64 0 0 0-60.245333-63.893333L789.333333 128z m-157.930666 131.456l33.173333 33.173333a8.533333 8.533333 0 0 1 0 12.074667L561.792 407.466667H695.466667c4.693333 0 8.533333 3.84 8.533333 8.533333v46.933333a8.533333 8.533333 0 0 1-8.533333 8.533334H554.666667v42.666666h140.8c4.693333 0 8.533333 3.84 8.533333 8.533334v46.933333a8.533333 8.533333 0 0 1-8.533333 8.533333H554.666667v162.133334a8.533333 8.533333 0 0 1-8.533334 8.533333h-46.933333a8.533333 8.533333 0 0 1-8.533333-8.533333v-162.133334h-140.8a8.533333 8.533333 0 0 1-8.533334-8.533333v-46.933333c0-4.693333 3.84-8.533333 8.533334-8.533334H490.666667v-42.666666h-140.8a8.533333 8.533333 0 0 1-8.533334-8.533334v-46.933333c0-4.693333 3.84-8.533333 8.533334-8.533333h127.829333l-102.741333-102.762667a8.533333 8.533333 0 0 1 0-12.074667l33.173333-33.173333a8.533333 8.533333 0 0 1 12.074667 0l99.562666 99.541333 99.562667-99.541333a8.533333 8.533333 0 0 1 12.074667 0z"  p-id="7932"></path></svg>