<?xml version="1.0" standalone="no"?><!DOCTYPE svg PUBLIC "-//W3C//DTD SVG 1.1//EN"
        "http://www.w3.org/Graphics/SVG/1.1/DTD/svg11.dtd">
<svg t="1623251346068" class="icon" viewBox="0 0 1024 1024" version="1.1" xmlns="http://www.w3.org/2000/svg" p-id="3960"
     xmlns:xlink="http://www.w3.org/1999/xlink" width="200" height="200">
    <defs>
        <style type="text/css"></style>
    </defs>
    <path d="M512 42.666667c259.2 0 469.333333 210.133333 469.333333 469.333333s-210.133333 469.333333-469.333333 469.333333S42.666667 771.2 42.666667 512 252.8 42.666667 512 42.666667z m0 64C288.149333 106.666667 106.666667 288.149333 106.666667 512s181.482667 405.333333 405.333333 405.333333 405.333333-181.482667 405.333333-405.333333S735.850667 106.666667 512 106.666667z m195.029333 235.818666a42.666667 42.666667 0 0 1 0 29.162667l-75.818666 208.512a85.333333 85.333333 0 0 1-51.050667 51.050667l-208.512 75.818666a42.666667 42.666667 0 0 1-54.677333-54.677333l75.818666-208.512a85.333333 85.333333 0 0 1 51.050667-51.050667l208.512-75.818666a42.666667 42.666667 0 0 1 54.677333 25.514666zM631.253333 392.746667l-165.546666 60.202666a21.333333 21.333333 0 0 0-11.690667 10.282667l-1.066667 2.474667-60.202666 165.546666 165.546666-60.202666a21.333333 21.333333 0 0 0 11.690667-10.282667l1.066667-2.474667 60.202666-165.546666z"
          p-id="3961"></path>
</svg>