<?xml version="1.0" standalone="no"?><!DOCTYPE svg PUBLIC "-//W3C//DTD SVG 1.1//EN"
        "http://www.w3.org/Graphics/SVG/1.1/DTD/svg11.dtd">
<svg t="1623251499745" class="icon" viewBox="0 0 1024 1024" version="1.1" xmlns="http://www.w3.org/2000/svg"
     p-id="11925" xmlns:xlink="http://www.w3.org/1999/xlink" width="200" height="200">
    <defs>
        <style type="text/css"></style>
    </defs>
    <path d="M426.666667 128c38.229333 0 72.533333 16.768 96 43.328a127.701333 127.701333 0 0 1 90.005333-43.2L618.666667 128h234.666666a128 128 0 0 1 127.914667 123.2L981.333333 256v512a128 128 0 0 1-123.2 127.914667L853.333333 896H613.162667a117.098667 117.098667 0 0 1-90.496 42.666667 117.098667 117.098667 0 0 1-90.496-42.666667H192a128 128 0 0 1-128-128V256a128 128 0 0 1 128-128h234.666667z m43.733333 704a53.333333 53.333333 0 0 0 104.533333 0H853.333333l3.754667-0.106667a64 64 0 0 0 60.138667-60.138666L917.333333 768V256l-0.106666-3.754667A64 64 0 0 0 853.333333 192H618.666667l-3.754667 0.106667a64 64 0 0 0-60.138667 60.138666L554.666667 256v460.8a8.533333 8.533333 0 0 1-8.533334 8.533333h-46.933333a8.533333 8.533333 0 0 1-8.533333-8.533333V256a64 64 0 0 0-56.533334-63.573333l-3.712-0.32L426.666667 192H192a64 64 0 0 0-63.893333 60.245333L128 256v512a64 64 0 0 0 60.245333 63.893333L192 832h278.4z"
          p-id="11926"></path>
    <path d="M200.533333 405.333333h217.6c4.693333 0 8.533333 3.84 8.533334 8.533334v46.933333a8.533333 8.533333 0 0 1-8.533334 8.533333H200.533333a8.533333 8.533333 0 0 1-8.533333-8.533333v-46.933333c0-4.693333 3.84-8.533333 8.533333-8.533334zM200.533333 533.333333h217.6c4.693333 0 8.533333 3.84 8.533334 8.533334v46.933333a8.533333 8.533333 0 0 1-8.533334 8.533333H200.533333a8.533333 8.533333 0 0 1-8.533333-8.533333v-46.933333c0-4.693333 3.84-8.533333 8.533333-8.533334zM627.2 405.333333h217.6c4.693333 0 8.533333 3.84 8.533333 8.533334v46.933333a8.533333 8.533333 0 0 1-8.533333 8.533333H627.2a8.533333 8.533333 0 0 1-8.533333-8.533333v-46.933333c0-4.693333 3.84-8.533333 8.533333-8.533334zM627.2 533.333333h217.6c4.693333 0 8.533333 3.84 8.533333 8.533334v46.933333a8.533333 8.533333 0 0 1-8.533333 8.533333H627.2a8.533333 8.533333 0 0 1-8.533333-8.533333v-46.933333c0-4.693333 3.84-8.533333 8.533333-8.533334z"
          p-id="11927"></path>
</svg>