<?xml version="1.0" standalone="no"?><!DOCTYPE svg PUBLIC "-//W3C//DTD SVG 1.1//EN" "http://www.w3.org/Graphics/SVG/1.1/DTD/svg11.dtd"><svg t="1623251509023" class="icon" viewBox="0 0 1024 1024" version="1.1" xmlns="http://www.w3.org/2000/svg" p-id="12614" xmlns:xlink="http://www.w3.org/1999/xlink" width="200" height="200"><defs><style type="text/css"></style></defs><path d="M290.986667 128a8.533333 8.533333 0 0 1 8.469333 7.466667c0.789333 6.165333 1.792 10.88 2.965333 14.186666a64.021333 64.021333 0 0 0 120.341334 0.384 71.253333 71.253333 0 0 0 3.093333-14.592A8.533333 8.533333 0 0 1 434.346667 128H832a128 128 0 0 1 128 128v512a128 128 0 0 1-128 128H434.346667a8.533333 8.533333 0 0 1-8.448-7.466667 69.76 69.76 0 0 0-2.688-13.333333 64.021333 64.021333 0 0 0-121.002667-0.256c-1.088 3.157333-2.026667 7.68-2.773333 13.589333a8.533333 8.533333 0 0 1-8.448 7.466667H192a128 128 0 0 1-128-128V256a128 128 0 0 1 128-128h98.986667z m-39.168 64H192a64 64 0 0 0-63.893333 60.245333L128 256v512a64 64 0 0 0 60.245333 63.893333L192 832h59.797333l1.109334-1.898667a127.957333 127.957333 0 0 1 104.96-62.016L362.666667 768a127.936 127.936 0 0 1 109.76 62.101333l1.088 1.898667H832a64 64 0 0 0 63.893333-60.245333L896 768V256a64 64 0 0 0-60.245333-63.893333L832 192H473.493333l-1.066666 1.898667A127.936 127.936 0 0 1 362.666667 256a127.936 127.936 0 0 1-109.76-62.101333L251.818667 192z m123.648 192c4.693333 0 8.533333 3.84 8.533333 8.533333v238.933334a8.533333 8.533333 0 0 1-8.533333 8.533333h-46.933334a8.533333 8.533333 0 0 1-8.533333-8.533333V392.533333c0-4.693333 3.84-8.533333 8.533333-8.533333h46.933334z"  p-id="12615"></path></svg>