<?xml version="1.0" standalone="no"?><!DOCTYPE svg PUBLIC "-//W3C//DTD SVG 1.1//EN"
        "http://www.w3.org/Graphics/SVG/1.1/DTD/svg11.dtd">
<svg t="1623251520805" class="icon" viewBox="0 0 1024 1024" version="1.1" xmlns="http://www.w3.org/2000/svg"
     p-id="13302" xmlns:xlink="http://www.w3.org/1999/xlink" width="200" height="200">
    <defs>
        <style type="text/css"></style>
    </defs>
    <path d="M311.466667 64c4.693333 0 8.533333 3.84 8.533333 8.533333v46.933334a8.533333 8.533333 0 0 1-8.533333 8.533333H234.666667a106.666667 106.666667 0 0 0-106.56 102.037333L128 234.666667v554.666666a106.666667 106.666667 0 0 0 102.037333 106.56L234.666667 896h554.666666a106.666667 106.666667 0 0 0 106.56-102.037333L896 789.333333V234.666667a106.666667 106.666667 0 0 0-102.037333-106.56L789.333333 128h-55.466666a8.533333 8.533333 0 0 1-8.533334-8.533333V72.533333c0-4.693333 3.84-8.533333 8.533334-8.533333H789.333333a170.666667 170.666667 0 0 1 170.666667 170.666667v554.666666a170.666667 170.666667 0 0 1-170.666667 170.666667H234.666667a170.666667 170.666667 0 0 1-170.666667-170.666667V234.666667a170.666667 170.666667 0 0 1 170.666667-170.666667h76.8z m234.666666 0c4.693333 0 8.533333 3.84 8.533334 8.533333v454.976l156.096-156.096a8.533333 8.533333 0 0 1 14.570666 6.037334v66.389333a8.533333 8.533333 0 0 1-2.496 6.016l-185.386666 185.408a21.226667 21.226667 0 0 1-11.328 5.909333l-2.517334 0.298667h-2.517333a21.248 21.248 0 0 1-13.824-6.186667l-184.746667-184.810666a8.533333 8.533333 0 0 1-2.517333-6.016v-66.368a8.533333 8.533333 0 0 1 14.570667-6.037334L490.666667 528.149333V72.533333c0-4.693333 3.84-8.533333 8.533333-8.533333h46.933333z"
          p-id="13303"></path>
</svg>