<?xml version="1.0" standalone="no"?><!DOCTYPE svg PUBLIC "-//W3C//DTD SVG 1.1//EN" "http://www.w3.org/Graphics/SVG/1.1/DTD/svg11.dtd"><svg t="1623251448368" class="icon" viewBox="0 0 1024 1024" version="1.1" xmlns="http://www.w3.org/2000/svg" p-id="9035" xmlns:xlink="http://www.w3.org/1999/xlink" width="200" height="200"><defs><style type="text/css"></style></defs><path d="M533.333333 128a85.333333 85.333333 0 0 1 85.333334 85.333333v21.312L839.317333 234.666667a85.333333 85.333333 0 0 1 56.832 21.674666l3.52 3.328 77.994667 77.994667a85.333333 85.333333 0 0 1 24.874667 55.509333l0.128 4.842667V725.333333a85.333333 85.333333 0 0 1-81.066667 85.226667L917.333333 810.666667h-25.749333a117.376 117.376 0 0 1-225.834667 0L618.666667 810.666667V810.666667l-196.416 0.021333a117.376 117.376 0 0 1-225.834667 0L106.666667 810.666667a85.333333 85.333333 0 0 1-85.333334-85.333334V213.333333a85.333333 85.333333 0 0 1 85.333334-85.333333h426.666666zM309.333333 725.333333a53.333333 53.333333 0 1 0 0 106.666667 53.333333 53.333333 0 0 0 0-106.666667z m469.333334 0a53.333333 53.333333 0 1 0 0 106.666667 53.333333 53.333333 0 0 0 0-106.666667zM533.333333 192H106.666667a21.333333 21.333333 0 0 0-21.184 18.837333L85.333333 213.333333v512a21.333333 21.333333 0 0 0 18.837334 21.184L106.666667 746.666667h89.749333a117.376 117.376 0 0 1 225.834667 0H554.666667V213.333333a21.333333 21.333333 0 0 0-16.426667-20.778666l-2.410667-0.426667L533.333333 192z m305.984 106.666667H618.666667v448h47.082666a117.376 117.376 0 0 1 225.834667 0H917.333333l2.496-0.149334a21.333333 21.333333 0 0 0 18.688-18.688L938.666667 725.333333V398.016l-0.192-2.816a21.333333 21.333333 0 0 0-4.202667-10.154667l-1.856-2.133333-78.016-77.994667-2.112-1.856a21.333333 21.333333 0 0 0-10.154667-4.202666L839.317333 298.666667z"  p-id="9036"></path></svg>