<?xml version="1.0" standalone="no"?><!DOCTYPE svg PUBLIC "-//W3C//DTD SVG 1.1//EN"
        "http://www.w3.org/Graphics/SVG/1.1/DTD/svg11.dtd">
<svg t="1623251458455" class="icon" viewBox="0 0 1024 1024" version="1.1" xmlns="http://www.w3.org/2000/svg" p-id="9723"
     xmlns:xlink="http://www.w3.org/1999/xlink" width="200" height="200">
    <defs>
        <style type="text/css"></style>
    </defs>
    <path d="M511.978667 149.312c85.717333 0 164.202667 32.384 224.810666 86.058667l7.616 6.848c43.413333 39.552 111.936 110.229333 205.525334 212.053333a85.333333 85.333333 0 0 1 3.136 111.893333l-3.093334 3.562667-33.770666 36.586667c-82.133333 88.533333-142.229333 149.546667-180.352 183.061333-60.48 53.205333-138.581333 85.269333-223.872 85.269333-85.802667 0-164.352-32.448-224.981334-86.229333l-7.594666-6.826667c-43.370667-39.552-111.808-110.165333-205.333334-211.84a85.333333 85.333333 0 0 1-3.093333-111.978666l3.114667-3.562667 41.706666-45.098667c77.610667-83.328 134.677333-141.162667 171.157334-173.546666C347.584 181.76 426.154667 149.312 512 149.312z m0 64c-67.712 0-131.712 25.024-182.549334 70.122667l-7.253333 6.528c-37.674667 34.389333-96.725333 94.933333-176.384 180.906666l-24.597333 26.666667a21.333333 21.333333 0 0 0 0 28.885333L153.6 561.493333c80.938667 87.168 139.818667 147.072 175.850667 179.029334 50.837333 45.077333 114.794667 70.101333 182.506666 70.101333 67.285333 0 130.901333-24.725333 181.610667-69.333333l7.296-6.506667c37.952-34.389333 97.28-95.146667 177.237333-181.546667l24.704-26.816a21.333333 21.333333 0 0 0 0-28.864l-40.234666-43.498666c-77.013333-82.730667-133.333333-139.882667-168.256-170.794667-50.816-45.013333-114.730667-69.973333-182.357334-69.973333zM512 320a192 192 0 1 1 0 384 192 192 0 0 1 0-384z m0 64a128 128 0 1 0 0 256 128 128 0 0 0 0-256z m0 42.666667a85.333333 85.333333 0 1 1-85.226667 89.6L426.666667 512h64a21.333333 21.333333 0 0 0 21.184-18.837333L512 490.666667v-64z"
          p-id="9724"></path>
</svg>