<?xml version="1.0" standalone="no"?><!DOCTYPE svg PUBLIC "-//W3C//DTD SVG 1.1//EN"
        "http://www.w3.org/Graphics/SVG/1.1/DTD/svg11.dtd">
<svg t="1623251501631" class="icon" viewBox="0 0 1024 1024" version="1.1" xmlns="http://www.w3.org/2000/svg"
     p-id="12064" xmlns:xlink="http://www.w3.org/1999/xlink" width="200" height="200">
    <defs>
        <style type="text/css"></style>
    </defs>
    <path d="M662.058667 64a8.533333 8.533333 0 0 1 6.037333 14.570667l-46.933333 46.933333a8.533333 8.533333 0 0 1-6.058667 2.496H234.666667a106.666667 106.666667 0 0 0-106.56 102.037333L128 234.666667v554.666666a106.666667 106.666667 0 0 0 102.037333 106.56L234.666667 896h554.666666a106.666667 106.666667 0 0 0 106.56-102.037333L896 789.333333V408.874667a8.533333 8.533333 0 0 1 2.496-6.037334l46.933333-46.933333a8.533333 8.533333 0 0 1 14.570667 6.037333V789.333333a170.666667 170.666667 0 0 1-170.666667 170.666667H234.666667a170.666667 170.666667 0 0 1-170.666667-170.666667V234.666667a170.666667 170.666667 0 0 1 170.666667-170.666667h427.392zM926.933333 94.442667a105.685333 105.685333 0 0 1 3.2 146.133333l-3.882666 4.010667-310.4 304.661333a85.333333 85.333333 0 0 1-59.754667 24.448h-71.786667a42.666667 42.666667 0 0 1-42.666666-42.666667v-71.04a85.333333 85.333333 0 0 1 25.322666-60.672l308.693334-305.28a107.264 107.264 0 0 1 151.274666 0.426667z m-172.992 111.082666L511.957333 444.8a21.333333 21.333333 0 0 0-6.144 12.330667l-0.170666 2.837333v49.706667h50.453333a21.333333 21.333333 0 0 0 12.821333-4.309334l2.112-1.813333 242.709334-238.250667-59.797334-59.797333z m69.12-68.16l-2.389333 2.176-21.226667 20.992 59.968 59.946667 22.272-21.824c16.277333-16.277333 16.277333-42.666667 0-58.944a43.264 43.264 0 0 0-58.645333-2.346667z"
          p-id="12065"></path>
</svg>