<?xml version="1.0" standalone="no"?><!DOCTYPE svg PUBLIC "-//W3C//DTD SVG 1.1//EN"
        "http://www.w3.org/Graphics/SVG/1.1/DTD/svg11.dtd">
<svg t="1623251472642" class="icon" viewBox="0 0 1024 1024" version="1.1" xmlns="http://www.w3.org/2000/svg"
     p-id="10549" xmlns:xlink="http://www.w3.org/1999/xlink" width="200" height="200">
    <defs>
        <style type="text/css"></style>
    </defs>
    <path d="M518.72 96a203.050667 203.050667 0 0 1 203.050667 203.050667v96.469333c0 56.298667-22.613333 110.229333-62.805334 149.674667l-42.794666 42.026666a3.562667 3.562667 0 0 0-1.066667 2.538667v6.016c0 0.405333 0.234667 0.768 0.597333 0.938667l33.664 15.850666a224.64 224.64 0 0 0-37.909333 52.906667l-23.04-10.88a65.024 65.024 0 0 1-37.312-58.816v-6.016c0-18.133333 7.296-35.498667 20.224-48.213333l42.794667-42.026667a145.770667 145.770667 0 0 0 43.648-104v-96.469333c0-76.8-62.250667-139.050667-139.050667-139.050667h-12.949333l-4.842667 0.064a139.050667 139.050667 0 0 0-134.698667 138.986667v95.872l0.085334 5.909333a145.770667 145.770667 0 0 0 43.562666 98.709333l43.904 43.157334 3.456 3.84c10.112 12.117333 15.658667 27.392 15.658667 43.221333l-0.042667 7.552-0.256 4.693333a65.024 65.024 0 0 1-37.013333 52.608L140.650667 793.578667l-2.986667 1.514666a39.104 39.104 0 0 0-20.330667 34.304v9.749334l0.042667 2.538666A23.850667 23.850667 0 0 0 141.184 864h467.050667a224.576 224.576 0 0 0 45.674666 64H141.184c-46.442667 0-84.8-36.16-87.722667-83.328l-0.128-4.522667v-10.752c0-37.717333 20.586667-72.362667 54.421334-90.88l4.736-2.389333 296.192-139.562667c0.085333 0.042667 0.128 0.256 0.085333 0.746667l0.128-1.536v-6.016c0-0.853333-0.298667-1.642667 0.213333-1.066667l-1.28-1.493333-42.794666-42.005333a210.112 210.112 0 0 1-62.698667-142.613334l-0.106667-7.061333v-96.469333c0-109.781333 87.253333-199.594667 197.226667-202.965334l5.824-0.085333z"
          p-id="10550"></path>
    <path d="M810.666667 597.333333a170.666667 170.666667 0 1 1 0 341.333334 170.666667 170.666667 0 0 1 0-341.333334z m0 64a106.666667 106.666667 0 1 0 0 213.333334 106.666667 106.666667 0 0 0 0-213.333334z"
          p-id="10551"></path>
    <path d="M780.496777 692.575277m6.033978 6.033978l93.526657 93.526656q6.033978 6.033978 0 12.067956l-33.186878 33.186878q-6.033978 6.033978-12.067956 0l-93.526657-93.526656q-6.033978-6.033978 0-12.067956l33.186878-33.186878q6.033978-6.033978 12.067956 0Z"
          p-id="10552"></path>
    <path d="M840.834816 692.575998m-6.033978 6.033977l-93.526657 93.526657q-6.033978 6.033978 0 12.067956l33.186878 33.186878q6.033978 6.033978 12.067956 0l93.526657-93.526657q6.033978-6.033978 0-12.067955l-33.186878-33.186879q-6.033978-6.033978-12.067956 0Z"
          p-id="10553"></path>
</svg>