<?xml version="1.0" standalone="no"?><!DOCTYPE svg PUBLIC "-//W3C//DTD SVG 1.1//EN"
        "http://www.w3.org/Graphics/SVG/1.1/DTD/svg11.dtd">
<svg t="1623251531662" class="icon" viewBox="0 0 1024 1024" version="1.1" xmlns="http://www.w3.org/2000/svg"
     p-id="13852" xmlns:xlink="http://www.w3.org/1999/xlink" width="200" height="200">
    <defs>
        <style type="text/css"></style>
    </defs>
    <path d="M529.386667 85.333333a203.050667 203.050667 0 0 1 202.986666 197.269334l0.064 5.781333v96.469333c0 53.952-20.778667 105.749333-57.877333 144.682667l-4.906667 4.992-42.816 42.026667a3.562667 3.562667 0 0 0-0.938666 1.6l-0.128 0.938666v6.016c0 0.277333 0.106667 0.512 0.277333 0.704l0.32 0.213334 51.413333 24.234666a8.533333 8.533333 0 0 1 4.885334 7.722667V669.866667a8.533333 8.533333 0 0 1-12.16 7.722666l-71.424-33.642666a65.024 65.024 0 0 1-37.162667-54.656l-0.149333-4.181334v-6.016c0-16.64 6.122667-32.597333 17.109333-44.949333l3.114667-3.264 42.794666-42.026667a145.770667 145.770667 0 0 0 43.52-97.493333l0.128-6.506667v-96.469333a139.050667 139.050667 0 0 0-134.058666-138.965333L529.386667 149.333333h-12.949334l-4.842666 0.064a139.050667 139.050667 0 0 0-134.613334 133.994667l-0.085333 4.992v95.872l0.085333 5.909333a145.770667 145.770667 0 0 0 38.976 93.994667l4.586667 4.693333 43.904 43.178667 3.456 3.84c9.088 10.88 14.506667 24.384 15.488 38.485333l0.170667 4.736-0.042667 7.552-0.256 4.693334a65.024 65.024 0 0 1-33.194667 50.645333l-3.818666 1.962667-294.933334 138.965333-2.986666 1.514667a39.104 39.104 0 0 0-20.202667 31.018666L128 818.730667v9.749333l0.042667 2.538667c0.725333 11.648 9.856 20.992 21.333333 22.186666l2.474667 0.128H674.133333c4.693333 0 8.533333 3.84 8.533334 8.533334v46.933333a8.533333 8.533333 0 0 1-8.533334 8.533333H151.850667c-45.013333 0-82.389333-33.92-87.338667-78.933333l-0.384-4.394667L64 829.482667v-10.752c0-36.074667 18.837333-69.333333 50.090667-88.384l4.330666-2.496 4.736-2.389334 296.192-139.562666 0.085334 0.106666v0.64l0.128-1.536v-6.016l-0.085334-1.066666c0-0.106667 0-0.192 0.064-0.213334l0.256 0.213334-1.301333-1.493334-42.794667-42.005333a209.984 209.984 0 0 1-62.314666-135.552l-0.384-7.04-0.106667-7.082667v-96.469333c0-107.861333 84.224-196.437333 191.466667-202.709333l5.76-0.256 5.824-0.085334h13.44z"
          p-id="13853"></path>
    <path d="M797.866667 682.666667h46.933333c4.693333 0 8.533333 3.84 8.533333 8.533333v217.6a8.533333 8.533333 0 0 1-8.533333 8.533333h-46.933333a8.533333 8.533333 0 0 1-8.533334-8.533333V691.2c0-4.693333 3.84-8.533333 8.533334-8.533333z"
          p-id="13854"></path>
    <path d="M712.533333 768h217.6c4.693333 0 8.533333 3.84 8.533334 8.533333v46.933334a8.533333 8.533333 0 0 1-8.533334 8.533333H712.533333a8.533333 8.533333 0 0 1-8.533333-8.533333v-46.933334c0-4.693333 3.84-8.533333 8.533333-8.533333z"
          p-id="13855"></path>
</svg>