<?xml version="1.0" standalone="no"?><!DOCTYPE svg PUBLIC "-//W3C//DTD SVG 1.1//EN" "http://www.w3.org/Graphics/SVG/1.1/DTD/svg11.dtd"><svg t="1623251479873" class="icon" viewBox="0 0 1024 1024" version="1.1" xmlns="http://www.w3.org/2000/svg" p-id="11101" xmlns:xlink="http://www.w3.org/1999/xlink" width="200" height="200"><defs><style type="text/css"></style></defs><path d="M518.72 96a203.050667 203.050667 0 0 1 202.986667 197.269333l0.064 5.781334v96.469333c0 53.952-20.778667 105.749333-57.877334 144.682667l-4.906666 4.992-42.816 42.026666a3.562667 3.562667 0 0 0-0.938667 1.6l-0.128 0.938667v6.016c0 0.277333 0.106667 0.512 0.277333 0.704l0.32 0.213333 33.664 15.872a224.64 224.64 0 0 0-37.909333 52.906667l-23.04-10.88a65.024 65.024 0 0 1-37.162667-54.634667l-0.149333-4.181333v-6.016c0-16.64 6.122667-32.597333 17.109333-44.949333l3.114667-3.264 42.794667-42.026667a145.770667 145.770667 0 0 0 43.52-97.493333l0.128-6.506667v-96.469333a139.050667 139.050667 0 0 0-134.058667-138.965334l-4.992-0.085333h-12.949333l-4.842667 0.064a139.050667 139.050667 0 0 0-134.613333 133.994667l-0.085334 4.992v95.872l0.085334 5.909333a145.770667 145.770667 0 0 0 38.976 93.994667l4.586666 4.693333 43.904 43.178667 3.456 3.84c9.088 10.88 14.506667 24.384 15.488 38.485333l0.170667 4.736-0.042667 7.552-0.256 4.693333a65.024 65.024 0 0 1-33.194666 50.645334l-3.818667 1.962666-294.933333 138.965334-2.986667 1.514666a39.104 39.104 0 0 0-20.202667 31.018667l-0.128 3.285333v9.749334l0.042667 2.538666c0.725333 11.648 9.856 20.992 21.333333 22.186667l2.474667 0.128h467.050667a224.576 224.576 0 0 0 45.674666 64H141.184c-45.013333 0-82.389333-33.92-87.338667-78.933333l-0.384-4.394667-0.128-4.522667v-10.752c0-36.074667 18.837333-69.333333 50.090667-88.384l4.330667-2.496 4.736-2.389333 296.192-139.562667c0.064 0.021333 0.106667 0.128 0.106666 0.341334L408.746667 597.333333l0.128-1.536v-6.016c0-0.64-0.170667-1.237333-0.021334-1.28l0.256 0.213334-1.301333-1.493334-42.794667-42.005333a209.984 209.984 0 0 1-62.314666-135.552l-0.384-7.04-0.106667-7.082667v-96.469333c0-107.861333 84.224-196.437333 191.466667-202.709333l5.76-0.256 5.824-0.085334h13.44zM810.666667 608a160 160 0 1 1 0 320 160 160 0 0 1 0-320z m0 64a96 96 0 1 0 0 192 96 96 0 0 0 0-192z m44.8 64c4.693333 0 8.533333 3.84 8.533333 8.533333v46.933334a8.533333 8.533333 0 0 1-8.533333 8.533333h-89.6a8.533333 8.533333 0 0 1-8.533334-8.533333v-46.933334c0-4.693333 3.84-8.533333 8.533334-8.533333h89.6z"  p-id="11102"></path></svg>