<?xml version="1.0" standalone="no"?><!DOCTYPE svg PUBLIC "-//W3C//DTD SVG 1.1//EN"
        "http://www.w3.org/Graphics/SVG/1.1/DTD/svg11.dtd">
<svg t="1623251436583" class="icon" viewBox="0 0 1024 1024" version="1.1" xmlns="http://www.w3.org/2000/svg" p-id="8484"
     xmlns:xlink="http://www.w3.org/1999/xlink" width="200" height="200">
    <defs>
        <style type="text/css"></style>
    </defs>
    <path d="M540.053333 96a203.050667 203.050667 0 0 1 202.986667 197.269333l0.064 5.781334v96.469333c0 53.952-20.778667 105.749333-57.877333 144.682667l-4.906667 4.992-42.816 42.026666a3.562667 3.562667 0 0 0-0.938667 1.6l-0.128 0.938667v6.016c0 0.277333 0.106667 0.512 0.277334 0.704l0.32 0.213333 35.413333 16.704a8.533333 8.533333 0 0 1 3.626667 12.16l-24.618667 40.277334a8.533333 8.533333 0 0 1-10.922667 3.264l-30.784-14.506667a65.024 65.024 0 0 1-37.162666-54.634667l-0.149334-4.181333v-6.016c0-16.64 6.122667-32.597333 17.109334-44.949333l3.114666-3.264 42.794667-42.026667a145.770667 145.770667 0 0 0 43.52-97.493333l0.128-6.506667v-96.469333a139.050667 139.050667 0 0 0-134.058667-138.965334l-4.992-0.085333h-12.949333l-4.842667 0.064a139.050667 139.050667 0 0 0-134.613333 133.994667l-0.085333 4.992v95.872l0.085333 5.909333a145.770667 145.770667 0 0 0 38.976 93.994667l4.586667 4.693333 43.904 43.178667 3.456 3.84c9.088 10.88 14.506667 24.384 15.488 38.485333l0.170666 4.736-0.042666 7.552-0.256 4.693333a65.024 65.024 0 0 1-33.194667 50.645334l-3.818667 1.962666-294.933333 138.965334-2.986667 1.514666a39.104 39.104 0 0 0-20.202666 31.018667l-0.128 3.285333v4.330667l0.042666 2.389333a18.517333 18.517333 0 0 0 16.085334 17.066667l2.389333 0.149333h448.96a8.533333 8.533333 0 0 1 7.488 4.416l25.813333 46.933334a8.533333 8.533333 0 0 1-7.466666 12.650666H157.162667c-42.069333 0-77.077333-31.573333-81.984-73.728l-0.405334-4.266666-0.128-4.522667v-5.418667c0-36.074667 18.837333-69.333333 50.090667-88.384l4.330667-2.496 4.736-2.389333 296.192-139.562667 0.085333 0.106667v0.64l0.128-1.536v-6.016l-0.085333-1.066667c0-0.106667 0-0.192 0.064-0.213333l0.256 0.213333-1.301334-1.493333-42.794666-42.005333a209.984 209.984 0 0 1-62.314667-135.552l-0.384-7.04-0.106667-7.082667v-96.469333c0-107.861333 84.224-196.437333 191.466667-202.709334l5.76-0.256 5.824-0.085333h13.44z m330.581334 565.312a8.533333 8.533333 0 0 1 7.402666 4.266667l67.712 117.653333a8.533333 8.533333 0 0 1 0.064 8.384l-67.072 121.301333a8.533333 8.533333 0 0 1-7.466666 4.394667h-140.074667a8.533333 8.533333 0 0 1-7.402667-4.266667l-70.272-121.301333a8.533333 8.533333 0 0 1 0.064-8.682667l70.933334-117.632a8.533333 8.533333 0 0 1 7.317333-4.117333z m-36.992 64h-65.664a8.533333 8.533333 0 0 0-7.317334 4.117333l-32.725333 54.272a8.533333 8.533333 0 0 0-0.064 8.682667l32.810667 56.682667a8.533333 8.533333 0 0 0 7.402666 4.245333h65.450667a8.533333 8.533333 0 0 0 7.466667-4.394667l31.338666-56.682666a8.533333 8.533333 0 0 0-0.085333-8.384L841.024 729.6a8.533333 8.533333 0 0 0-7.381333-4.266667z"
          p-id="8485"></path>
</svg>