<?xml version="1.0" standalone="no"?><!DOCTYPE svg PUBLIC "-//W3C//DTD SVG 1.1//EN" "http://www.w3.org/Graphics/SVG/1.1/DTD/svg11.dtd"><svg t="1623251529664" class="icon" viewBox="0 0 1024 1024" version="1.1" xmlns="http://www.w3.org/2000/svg" p-id="13714" xmlns:xlink="http://www.w3.org/1999/xlink" width="200" height="200"><defs><style type="text/css"></style></defs><path d="M192 938.666667a128 128 0 0 1-128-128V469.333333a128 128 0 0 1 128-128h83.797333l45.76-183.338666a85.333333 85.333333 0 0 1 102.784-62.293334l32.149334 7.744a128 128 0 0 1 98.005333 124.736L554.368 277.333333h200.170667a170.666667 170.666667 0 0 1 170.176 183.616l-21.333334 280.554667A213.333333 213.333333 0 0 1 690.645333 938.666667H192z m85.290667-533.333334H192a64 64 0 0 0-63.893333 60.245334L128 469.333333v341.333334a64 64 0 0 0 60.245333 63.893333L192 874.666667h85.312l-0.021333-469.333334z m107.093333-234.197333l-0.746667 2.346667L341.333333 342.954667V874.666667h349.312a149.333333 149.333333 0 0 0 148.437334-132.842667l0.469333-5.162667 21.333333-280.576a106.666667 106.666667 0 0 0-101.738666-114.645333L754.56 341.333333h-264.32l0.277333-113.28a64 64 0 0 0-45.312-61.376l-3.690666-1.002666-32.149334-7.744a21.333333 21.333333 0 0 0-24.96 13.205333z"  p-id="13715"></path></svg>