<?xml version="1.0" standalone="no"?><!DOCTYPE svg PUBLIC "-//W3C//DTD SVG 1.1//EN"
        "http://www.w3.org/Graphics/SVG/1.1/DTD/svg11.dtd">
<svg t="1623251618367" class="icon" viewBox="0 0 1024 1024" version="1.1" xmlns="http://www.w3.org/2000/svg"
     p-id="18930" xmlns:xlink="http://www.w3.org/1999/xlink" width="200" height="200">
    <defs>
        <style type="text/css"></style>
    </defs>
    <path d="M596.693333 48.384l277.333334 158.485333A170.666667 170.666667 0 0 1 960 355.050667v313.898666a170.666667 170.666667 0 0 1-85.973333 148.181334l-277.333334 158.485333a170.666667 170.666667 0 0 1-169.386666 0l-277.333334-158.485333A170.666667 170.666667 0 0 1 64 668.949333V355.050667a170.666667 170.666667 0 0 1 85.973333-148.181334l277.333334-158.485333a170.666667 170.666667 0 0 1 169.386666 0zM463.786667 101.397333l-4.736 2.56-277.333334 158.464a106.666667 106.666667 0 0 0-53.632 87.637334L128 355.050667v313.898666a106.666667 106.666667 0 0 0 49.493333 90.048l4.266667 2.56 277.333333 158.506667a106.666667 106.666667 0 0 0 101.098667 2.538667l4.736-2.56 277.333333-158.464a106.666667 106.666667 0 0 0 53.632-87.637334l0.106667-4.992V355.050667a106.666667 106.666667 0 0 0-49.493333-90.048l-4.266667-2.56-277.333333-158.506667a106.666667 106.666667 0 0 0-101.098667-2.538667z m257.194666 229.077334a42.666667 42.666667 0 0 1 0 26.24l-75.562666 233.770666a85.333333 85.333333 0 0 1-54.954667 54.954667l-233.770667 75.562667a42.666667 42.666667 0 0 1-53.717333-53.717334l75.562667-233.770666a85.333333 85.333333 0 0 1 54.954666-54.954667l233.770667-75.562667a42.666667 42.666667 0 0 1 53.717333 27.477334z m-73.706666 46.229333l-194.112 62.741333a21.333333 21.333333 0 0 0-12.8 11.370667l-0.938667 2.368-62.72 194.090667 194.090667-62.72a21.333333 21.333333 0 0 0 12.8-11.370667l0.938666-2.368 62.741334-194.112zM512 469.333333a42.666667 42.666667 0 1 1 0 85.333334 42.666667 42.666667 0 0 1 0-85.333334z"
          p-id="18931"></path>
</svg>