<?xml version="1.0" standalone="no"?><!DOCTYPE svg PUBLIC "-//W3C//DTD SVG 1.1//EN" "http://www.w3.org/Graphics/SVG/1.1/DTD/svg11.dtd"><svg t="1623251599689" class="icon" viewBox="0 0 1024 1024" version="1.1" xmlns="http://www.w3.org/2000/svg" p-id="17698" xmlns:xlink="http://www.w3.org/1999/xlink" width="200" height="200"><defs><style type="text/css"></style></defs><path d="M546.133333 64c4.693333 0 8.533333 3.84 8.533334 8.533333v46.933334a8.533333 8.533333 0 0 1-8.533334 8.533333H234.666667a106.666667 106.666667 0 0 0-106.56 102.037333L128 234.666667v554.666666a106.666667 106.666667 0 0 0 102.037333 106.56L234.666667 896h554.666666a106.666667 106.666667 0 0 0 106.56-102.037333L896 789.333333V477.866667c0-4.693333 3.84-8.533333 8.533333-8.533334h46.933334c4.693333 0 8.533333 3.84 8.533333 8.533334V789.333333a170.666667 170.666667 0 0 1-170.666667 170.666667H234.666667a170.666667 170.666667 0 0 1-170.666667-170.666667V234.666667a170.666667 170.666667 0 0 1 170.666667-170.666667h311.466666z m234.666667 0c4.693333 0 8.533333 3.84 8.533333 8.533333V234.666667h162.133334c4.693333 0 8.533333 3.84 8.533333 8.533333v46.933333a8.533333 8.533333 0 0 1-8.533333 8.533334H789.333333v162.133333a8.533333 8.533333 0 0 1-6.826666 8.362667L780.8 469.333333h-46.933333a8.533333 8.533333 0 0 1-8.533334-8.533333V298.666667h-162.133333a8.533333 8.533333 0 0 1-8.533333-8.533334v-46.933333c0-4.693333 3.84-8.533333 8.533333-8.533333H725.333333V72.533333a8.533333 8.533333 0 0 1 6.826667-8.362666L733.866667 64z"  p-id="17699"></path></svg>