<?xml version="1.0" standalone="no"?><!DOCTYPE svg PUBLIC "-//W3C//DTD SVG 1.1//EN" "http://www.w3.org/Graphics/SVG/1.1/DTD/svg11.dtd"><svg t="1623251582106" class="icon" viewBox="0 0 1024 1024" version="1.1" xmlns="http://www.w3.org/2000/svg" p-id="16599" xmlns:xlink="http://www.w3.org/1999/xlink" width="200" height="200"><defs><style type="text/css"></style></defs><path d="M843.861333 176.789333c129.130667 129.130667 129.130667 338.496 0 467.626667-121.493333 121.493333-314.026667 128.682667-443.904 21.546667l-106.709333 106.666666 99.584 99.562667a8.533333 8.533333 0 0 1 0 12.074667l-33.194667 33.194666a8.533333 8.533333 0 0 1-12.053333 0l-99.584-99.584-99.541333 99.584a8.533333 8.533333 0 0 1-12.074667 0L103.189333 884.266667a8.533333 8.533333 0 0 1 0-12.074667l105.514667-105.493333a8.704 8.704 0 0 1 0.085333-0.085334l33.194667-33.194666 112.704-112.725334c-107.136-129.898667-99.946667-322.410667 21.546667-443.904 129.130667-129.130667 338.496-129.130667 467.626666 0z m-422.378666 45.248c-104.128 104.149333-104.128 272.981333 0 377.130667 104.149333 104.128 272.981333 104.128 377.130666 0 104.149333-104.149333 104.149333-272.981333 0-377.130667-104.149333-104.128-272.981333-104.128-377.130666 0z"  p-id="16600"></path></svg>