<?xml version="1.0" standalone="no"?><!DOCTYPE svg PUBLIC "-//W3C//DTD SVG 1.1//EN"
        "http://www.w3.org/Graphics/SVG/1.1/DTD/svg11.dtd">
<svg t="1623251547494" class="icon" viewBox="0 0 1024 1024" version="1.1" xmlns="http://www.w3.org/2000/svg"
     p-id="14402" xmlns:xlink="http://www.w3.org/1999/xlink" width="200" height="200">
    <defs>
        <style type="text/css"></style>
    </defs>
    <path d="M682.666667 106.666667a128 128 0 0 1 127.573333 117.397333l93.056-15.509333A85.333333 85.333333 0 0 1 1002.666667 292.736v438.528a85.333333 85.333333 0 0 1-99.370667 84.181333l-93.056-15.509333A128 128 0 0 1 682.666667 917.333333H149.333333a128 128 0 0 1-128-128V234.666667a128 128 0 0 1 128-128h533.333334z m0 64H149.333333a64 64 0 0 0-63.893333 60.245333L85.333333 234.666667v554.666666a64 64 0 0 0 60.245334 63.893334L149.333333 853.333333h533.333334a64 64 0 0 0 63.893333-60.245333L746.666667 789.333333V234.666667a64 64 0 0 0-60.245334-63.893334L682.666667 170.666667z m233.642666 100.757333l-2.474666 0.256-103.168 17.194667v446.229333l104.021333 17.322667 2.645333 0.170666a21.333333 21.333333 0 0 0 21.184-18.837333l0.149334-2.496V292.736a21.333333 21.333333 0 0 0-22.357334-21.333333zM650.666667 234.666667a32 32 0 1 1 0 64 32 32 0 0 1 0-64z"
          p-id="14403"></path>
</svg>