<?xml version="1.0" standalone="no"?><!DOCTYPE svg PUBLIC "-//W3C//DTD SVG 1.1//EN" "http://www.w3.org/Graphics/SVG/1.1/DTD/svg11.dtd"><svg t="1623251573078" class="icon" viewBox="0 0 1024 1024" version="1.1" xmlns="http://www.w3.org/2000/svg" p-id="16049" xmlns:xlink="http://www.w3.org/1999/xlink" width="200" height="200"><defs><style type="text/css"></style></defs><path d="M512 64c153.173333 0 277.333333 124.16 277.333333 277.333333v128a128 128 0 0 1 128 128v234.666667a128 128 0 0 1-128 128H234.666667a128 128 0 0 1-128-128V597.333333a128 128 0 0 1 128-128v-128c0-153.173333 124.16-277.333333 277.333333-277.333333z m277.333333 469.333333H234.666667a64 64 0 0 0-63.893334 60.245334L170.666667 597.333333v234.666667a64 64 0 0 0 60.245333 63.893333L234.666667 896h554.666666a64 64 0 0 0 63.893334-60.245333L853.333333 832V597.333333a64 64 0 0 0-60.245333-63.893333L789.333333 533.333333z m-243.2 106.666667c4.693333 0 8.533333 3.84 8.533334 8.533333v110.933334a8.533333 8.533333 0 0 1-8.533334 8.533333h-46.933333a8.533333 8.533333 0 0 1-8.533333-8.533333v-110.933334c0-4.693333 3.84-8.533333 8.533333-8.533333h46.933333zM512 128c-115.84 0-210.090667 92.309333-213.248 207.36L298.666667 341.333333v128h426.666666v-128c0-115.84-92.309333-210.090667-207.36-213.248L512 128z"  p-id="16050"></path></svg>