<?xml version="1.0" standalone="no"?><!DOCTYPE svg PUBLIC "-//W3C//DTD SVG 1.1//EN"
        "http://www.w3.org/Graphics/SVG/1.1/DTD/svg11.dtd">
<svg t="1623251577984" class="icon" viewBox="0 0 1024 1024" version="1.1" xmlns="http://www.w3.org/2000/svg"
     p-id="16323" xmlns:xlink="http://www.w3.org/1999/xlink" width="200" height="200">
    <defs>
        <style type="text/css"></style>
    </defs>
    <path d="M576 106.666667c223.850667 0 405.333333 181.482667 405.333333 405.333333 0 203.584-150.101333 372.138667-345.685333 400.981333l39.744 39.744a4.266667 4.266667 0 0 1-3.029333 7.274667h-71.488a8.533333 8.533333 0 0 1-6.037334-2.496L497.92 860.586667a4.266667 4.266667 0 0 1 3.029333-7.274667H576c188.522667 0 341.333333-152.810667 341.333333-341.333333 0-173.013333-128.725333-315.946667-295.616-338.304L554.666667 106.666667h21.333333z m-128 64C259.477333 170.666667 106.666667 323.477333 106.666667 512c0 173.013333 128.725333 315.946667 295.616 338.304L469.333333 917.333333h-21.333333C224.149333 917.333333 42.666667 735.850667 42.666667 512 42.666667 308.394667 192.768 139.861333 388.352 111.018667l-39.744-39.744A4.266667 4.266667 0 0 1 351.637333 64h71.488a8.533333 8.533333 0 0 1 6.037334 2.496L526.08 163.413333a4.266667 4.266667 0 0 1-3.029333 7.274667H448z"
          p-id="16324"></path>
</svg>