<?xml version="1.0" standalone="no"?><!DOCTYPE svg PUBLIC "-//W3C//DTD SVG 1.1//EN" "http://www.w3.org/Graphics/SVG/1.1/DTD/svg11.dtd"><svg t="1623251575072" class="icon" viewBox="0 0 1024 1024" version="1.1" xmlns="http://www.w3.org/2000/svg" p-id="16187" xmlns:xlink="http://www.w3.org/1999/xlink" width="200" height="200"><defs><style type="text/css"></style></defs><path d="M917.333333 851.669333a85.333333 85.333333 0 0 1-105.322666 82.944l-290.005334-69.866666a42.666667 42.666667 0 0 0-20.010666 0L211.989333 934.613333A85.333333 85.333333 0 0 1 106.666667 851.669333V192a128 128 0 0 1 128-128h554.666666a128 128 0 0 1 128 128v659.669333zM853.333333 320H170.666667v531.669333a21.333333 21.333333 0 0 0 23.893333 21.184l2.432-0.448 290.026667-69.888a106.666667 106.666667 0 0 1 43.776-1.28l6.186666 1.28 290.026667 69.888a21.333333 21.333333 0 0 0 26.176-18.261333l0.149333-2.474667V320z m-64-192H234.666667a64 64 0 0 0-63.893334 60.245333L170.666667 192v64h682.666666V192a64 64 0 0 0-60.245333-63.893333L789.333333 128z"  p-id="16188"></path></svg>