<?xml version="1.0" standalone="no"?><!DOCTYPE svg PUBLIC "-//W3C//DTD SVG 1.1//EN"
        "http://www.w3.org/Graphics/SVG/1.1/DTD/svg11.dtd">
<svg t="1623251524691" class="icon" viewBox="0 0 1024 1024" version="1.1" xmlns="http://www.w3.org/2000/svg"
     p-id="13440" xmlns:xlink="http://www.w3.org/1999/xlink" width="200" height="200">
    <defs>
        <style type="text/css"></style>
    </defs>
    <path d="M500.928 160.064l4.842667-0.064h12.949333c76.8 0 139.050667 62.250667 139.050667 139.050667v96.469333a145.770667 145.770667 0 0 1-43.648 104.021333l-42.794667 42.026667a67.562667 67.562667 0 0 0-20.224 48.192v6.016c0 25.173333 14.549333 48.085333 37.312 58.837333l295.808 139.392a39.104 39.104 0 0 1 22.442667 35.392v10.752c0 13.162667-10.666667 23.850667-23.850667 23.850667H141.184c-12.586667 0-23.04-9.813333-23.808-22.314667l-0.064-2.538666 0.021333-9.749334c0-14.293333 7.808-27.456 20.309334-34.304l2.986666-1.493333 294.954667-138.986667a65.024 65.024 0 0 0 37.013333-52.608l0.256-4.693333 0.042667-7.552c0-15.829333-5.546667-31.104-15.658667-43.242667l-3.456-3.818666-43.904-43.157334a145.770667 145.770667 0 0 1-43.562666-98.709333l-0.106667-5.909333v-95.872a139.050667 139.050667 0 0 1 134.72-138.986667z m-92.032 435.712L408.746667 597.333333c0.042667-0.490667 0-0.704-0.085334-0.746666L112.490667 736.128l-4.736 2.389333c-33.834667 18.517333-54.421333 53.162667-54.421334 90.88v10.752l0.128 4.522667C56.384 891.84 94.72 928 141.184 928h741.632a87.850667 87.850667 0 0 0 87.850667-87.850667v-10.752a103.104 103.104 0 0 0-59.157334-93.269333L615.701333 596.693333a1.024 1.024 0 0 1-0.597333-0.938666v-6.016c0-0.96 0.384-1.877333 1.066667-2.56l42.794666-42.005334a209.770667 209.770667 0 0 0 62.805334-149.674666v-96.469334A203.050667 203.050667 0 0 0 518.72 96h-13.44l-5.824 0.085333c-109.973333 3.370667-197.226667 93.184-197.226667 202.965334v96.469333l0.106667 7.061333a210.112 210.112 0 0 0 62.698667 142.613334l42.794666 42.026666 1.28 1.472c-0.512-0.576-0.213333 0.213333-0.213333 1.066667v6.016z"
          p-id="13441"></path>
</svg>