<?xml version="1.0" standalone="no"?><!DOCTYPE svg PUBLIC "-//W3C//DTD SVG 1.1//EN" "http://www.w3.org/Graphics/SVG/1.1/DTD/svg11.dtd"><svg t="1623251360916" class="icon" viewBox="0 0 1024 1024" version="1.1" xmlns="http://www.w3.org/2000/svg" p-id="4926" xmlns:xlink="http://www.w3.org/1999/xlink" width="200" height="200"><defs><style type="text/css"></style></defs><path d="M512 42.666667c259.2 0 469.333333 210.133333 469.333333 469.333333s-210.133333 469.333333-469.333333 469.333333S42.666667 771.2 42.666667 512 252.8 42.666667 512 42.666667z m306.304 203.861333L246.528 818.304A403.754667 403.754667 0 0 0 512 917.333333c223.850667 0 405.333333-181.482667 405.333333-405.333333 0-101.546667-37.333333-194.346667-99.029333-265.472zM512 106.666667C288.149333 106.666667 106.666667 288.149333 106.666667 512c0 99.285333 35.690667 190.229333 94.954666 260.693333l571.093334-571.072A403.712 403.712 0 0 0 512 106.666667z"  p-id="4927"></path></svg>