<?xml version="1.0" standalone="no"?><!DOCTYPE svg PUBLIC "-//W3C//DTD SVG 1.1//EN"
        "http://www.w3.org/Graphics/SVG/1.1/DTD/svg11.dtd">
<svg t="1623251584003" class="icon" viewBox="0 0 1024 1024" version="1.1" xmlns="http://www.w3.org/2000/svg"
     p-id="16737" xmlns:xlink="http://www.w3.org/1999/xlink" width="200" height="200">
    <defs>
        <style type="text/css"></style>
    </defs>
    <path d="M768 106.666667a85.376 85.376 0 0 1 82.986667 65.408A128 128 0 0 1 960 298.666667v490.666666a128 128 0 0 1-128 128H192a128 128 0 0 1-128-128V298.666667a128.021333 128.021333 0 0 1 109.013333-126.592A85.333333 85.333333 0 0 1 256 106.666667h512z m128 265.130666l-347.306667 165.397334a85.333333 85.333333 0 0 1-73.386666 0L128 371.797333V789.333333a64 64 0 0 0 60.245333 63.893334L192 853.333333h640a64 64 0 0 0 63.893333-60.245333L896 789.333333V371.797333zM768 170.666667H256a21.333333 21.333333 0 0 0-21.184 18.837333L234.666667 192v152.448l267.797333 133.888a21.333333 21.333333 0 0 0 16.426667 1.109333l2.645333-1.109333L789.333333 344.426667V192a21.333333 21.333333 0 0 0-18.837333-21.184L768 170.666667zM128.106667 294.912L128 298.666667v2.261333l42.666667 20.288v-82.901333a64.042667 64.042667 0 0 0-42.56 56.597333z m725.248-56.597333L853.333333 321.194667l42.666667-20.288V298.666667a64.021333 64.021333 0 0 0-42.666667-60.352z"
          p-id="16738"></path>
</svg>