<?xml version="1.0" standalone="no"?><!DOCTYPE svg PUBLIC "-//W3C//DTD SVG 1.1//EN" "http://www.w3.org/Graphics/SVG/1.1/DTD/svg11.dtd"><svg t="1623251452625" class="icon" viewBox="0 0 1024 1024" version="1.1" xmlns="http://www.w3.org/2000/svg" p-id="9309" xmlns:xlink="http://www.w3.org/1999/xlink" width="200" height="200"><defs><style type="text/css"></style></defs><path d="M72.533333 353.408a8.533333 8.533333 0 0 1 6.037334 2.496l132.266666 132.266667a8.533333 8.533333 0 0 1 2.496 6.037333v61.184a8.533333 8.533333 0 0 1-14.570666 6.037333L128 490.666667v333.333333a72 72 0 0 0 67.776 71.893333l4.224 0.106667h624a72 72 0 0 0 71.893333-67.776l0.106667-4.224v-99.413333a8.533333 8.533333 0 0 1 14.570667-6.016l46.933333 46.933333a8.533333 8.533333 0 0 1 2.496 6.037333v46.976A141.482667 141.482667 0 0 1 818.517333 960H205.482667A141.482667 141.482667 0 0 1 64 818.517333V361.941333c0-4.714667 3.84-8.533333 8.533333-8.533333z m540.437334-98.389333l33.173333 33.194666a8.533333 8.533333 0 0 1 0 12.074667L541.077333 405.333333H674.133333c4.693333 0 8.533333 3.84 8.533334 8.533334v46.933333a8.533333 8.533333 0 0 1-8.533334 8.533333H533.333333v42.666667h140.8c4.693333 0 8.533333 3.84 8.533334 8.533333v46.933334a8.533333 8.533333 0 0 1-8.533334 8.533333H533.333333v162.133333a8.533333 8.533333 0 0 1-8.533333 8.533334h-46.933333a8.533333 8.533333 0 0 1-8.533334-8.533334V576h-140.8a8.533333 8.533333 0 0 1-8.533333-8.533333v-46.933334c0-4.693333 3.84-8.533333 8.533333-8.533333H469.333333v-42.666667h-140.8a8.533333 8.533333 0 0 1-8.533333-8.533333v-46.933333c0-4.693333 3.84-8.533333 8.533333-8.533334h133.034667l-105.045333-105.045333a8.533333 8.533333 0 0 1 0-12.074667l33.173333-33.194666a8.533333 8.533333 0 0 1 12.074667 0l99.562666 99.562666 99.562667-99.562666a8.533333 8.533333 0 0 1 12.074667 0zM818.517333 64A141.482667 141.482667 0 0 1 960 205.482667v456.576a8.533333 8.533333 0 0 1-14.570667 6.037333l-132.266666-132.266667a8.533333 8.533333 0 0 1-2.496-6.037333v-61.184a8.533333 8.533333 0 0 1 14.570666-6.037333L896 533.333333V200a72 72 0 0 0-67.776-71.893333L824 128H200a72 72 0 0 0-71.893333 67.776L128 200v99.413333a8.533333 8.533333 0 0 1-14.570667 6.016l-46.933333-46.933333A8.533333 8.533333 0 0 1 64 252.458667V205.482667A141.482667 141.482667 0 0 1 205.482667 64h613.034666z"  p-id="9310"></path></svg>