<?xml version="1.0" standalone="no"?><!DOCTYPE svg PUBLIC "-//W3C//DTD SVG 1.1//EN"
        "http://www.w3.org/Graphics/SVG/1.1/DTD/svg11.dtd">
<svg t="1623251406200" class="icon" viewBox="0 0 1024 1024" version="1.1" xmlns="http://www.w3.org/2000/svg" p-id="7524"
     xmlns:xlink="http://www.w3.org/1999/xlink" width="200" height="200">
    <defs>
        <style type="text/css"></style>
    </defs>
    <path d="M832 64a128 128 0 0 1 128 128v640a128 128 0 0 1-128 128H192a128 128 0 0 1-128-128V192a128 128 0 0 1 128-128h640z m0 64H192a64 64 0 0 0-63.893333 60.245333L128 192v640a64 64 0 0 0 60.245333 63.893333L192 896h640a64 64 0 0 0 63.893333-60.245333L896 832V192a64 64 0 0 0-60.245333-63.893333L832 128zM311.466667 341.333333c4.693333 0 8.533333 3.84 8.533333 8.533334v324.266666a8.533333 8.533333 0 0 1-8.533333 8.533334h-46.933334a8.533333 8.533333 0 0 1-8.533333-8.533334V349.866667c0-4.693333 3.84-8.533333 8.533333-8.533334h46.933334z m149.333333 0c4.693333 0 8.533333 3.84 8.533333 8.533334v324.266666a8.533333 8.533333 0 0 1-8.533333 8.533334h-46.933333a8.533333 8.533333 0 0 1-8.533334-8.533334V349.866667c0-4.693333 3.84-8.533333 8.533334-8.533334h46.933333z m149.333333 0c4.693333 0 8.533333 3.84 8.533334 8.533334v324.266666a8.533333 8.533333 0 0 1-8.533334 8.533334h-46.933333a8.533333 8.533333 0 0 1-8.533333-8.533334V349.866667c0-4.693333 3.84-8.533333 8.533333-8.533334h46.933333z m149.333334 0c4.693333 0 8.533333 3.84 8.533333 8.533334v324.266666a8.533333 8.533333 0 0 1-8.533333 8.533334h-46.933334a8.533333 8.533333 0 0 1-8.533333-8.533334V349.866667c0-4.693333 3.84-8.533333 8.533333-8.533334h46.933334z"
          p-id="7525"></path>
</svg>