<?xml version="1.0" standalone="no"?><!DOCTYPE svg PUBLIC "-//W3C//DTD SVG 1.1//EN" "http://www.w3.org/Graphics/SVG/1.1/DTD/svg11.dtd"><svg t="1623251549615" class="icon" viewBox="0 0 1024 1024" version="1.1" xmlns="http://www.w3.org/2000/svg" p-id="14538" xmlns:xlink="http://www.w3.org/1999/xlink" width="200" height="200"><defs><style type="text/css"></style></defs><path d="M565.333333 85.333333C747.946667 85.333333 896 233.386667 896 416c0 76.096-25.706667 146.197333-68.906667 202.069333A99.946667 99.946667 0 0 1 928 682.666667a90.624 90.624 0 0 1-48.832 114.965333l-4.693333 1.877333-265.642667 97.877334a192 192 0 0 1-110.357333 6.72L192 832H93.866667a8.533333 8.533333 0 0 1-8.533334-8.533333v-46.933334a8.533333 8.533333 0 0 1 8.512-8.533333h105.6l313.685334 73.813333a128 128 0 0 0 67.626666-2.474666l5.952-2.005334 265.792-97.92c13.76-5.184 20.736-20.522667 15.573334-34.282666a35.989333 35.989333 0 0 0-40-22.784l-3.157334 0.704L669.909333 725.333333H477.866667a8.533333 8.533333 0 0 1-8.533334-8.533333v-46.933333c0-4.693333 3.84-8.533333 8.533334-8.533334h66.133333a32 32 0 0 0 3.072-63.850666L544 597.333333H93.845333a8.533333 8.533333 0 0 1-8.533333-8.533333v-46.933333c0.021333-4.693333 3.84-8.533333 8.554667-8.533334l162.24 0.021334A329.92 329.92 0 0 1 234.666667 416C234.666667 233.386667 382.72 85.333333 565.333333 85.333333z m0 64C418.048 149.333333 298.666667 268.714667 298.666667 416c0 42.112 9.770667 81.92 27.136 117.333333H533.333333v-42.666666H456.533333a8.533333 8.533333 0 0 1-8.533333-8.533334v-46.933333c0-4.693333 3.84-8.533333 8.533333-8.533333h76.778667v-21.333334H456.533333a8.533333 8.533333 0 0 1-8.533333-8.533333v-46.933333c0-4.693333 3.84-8.533333 8.533333-8.533334h65.386667l-56.149333-56.128a8.533333 8.533333 0 0 1 0-12.074666l33.194666-33.194667a8.533333 8.533333 0 0 1 12.053334 0l54.314666 54.314667 54.314667-54.314667a8.533333 8.533333 0 0 1 12.053333 0l33.194667 33.194667a8.533333 8.533333 0 0 1 0 12.074666L608.725333 341.333333H674.133333c4.693333 0 8.533333 3.84 8.533334 8.533334v46.933333a8.533333 8.533333 0 0 1-8.533334 8.533333h-76.821333v21.333334H674.133333c4.693333 0 8.533333 3.84 8.533334 8.533333v46.933333a8.533333 8.533333 0 0 1-8.533334 8.533334h-76.821333v58.816a95.914667 95.914667 0 0 1 37.226667 111.872L661.333333 661.333333l21.397334-5.824A266.666667 266.666667 0 0 0 832 416C832 268.714667 712.618667 149.333333 565.333333 149.333333z"  p-id="14539"></path></svg>