<?xml version="1.0" standalone="no"?><!DOCTYPE svg PUBLIC "-//W3C//DTD SVG 1.1//EN" "http://www.w3.org/Graphics/SVG/1.1/DTD/svg11.dtd"><svg t="1623251460088" class="icon" viewBox="0 0 1024 1024" version="1.1" xmlns="http://www.w3.org/2000/svg" p-id="9861" xmlns:xlink="http://www.w3.org/1999/xlink" width="200" height="200"><defs><style type="text/css"></style></defs><path d="M455.338667 117.333333a193.557333 193.557333 0 0 1 193.557333 193.557334v90.752a200.042667 200.042667 0 0 1-60.330667 143.146666l-39.936 38.997334a3.562667 3.562667 0 0 0-1.066666 2.538666l-0.021334 4.224 278.421334 130.453334a103.104 103.104 0 0 1 59.264 88.597333l0.106666 4.778667v7.530666a84.757333 84.757333 0 0 1-84.757333 84.757334H95.424a84.757333 84.757333 0 0 1-84.586667-79.210667l-0.106666-2.517333L10.666667 820.693333l0.021333-6.336c0-37.76 20.629333-72.490667 53.76-90.538666l1.984-1.024 4.48-2.24 277.525333-130.005334 0.021334-4.245333a3.562667 3.562667 0 0 0-0.362667-1.6l-0.277333-0.384-0.704-0.789333-39.68-38.762667a200.490667 200.490667 0 0 1-59.797334-129.642667l-0.384-7.125333-0.128-6.997333v-90.133334c0-104.490667 82.986667-190.144 188.373334-193.493333l5.696-0.064z m0 64h-14.165334l-4.714666 0.064a129.557333 129.557333 0 0 0-125.354667 129.493334v90.133333l0.106667 5.845333a136.042667 136.042667 0 0 0 40.917333 92.117334l41.066667 40.149333 3.498666 3.84c10.154667 12.138667 15.744 27.477333 15.744 43.349333l-0.021333 6.336-0.256 4.522667a63.125333 63.125333 0 0 1-36.053333 51.093333L98.048 778.538667l-2.986667 1.493333c-12.544 6.826667-20.394667 20.010667-20.394666 34.346667v6.506666l0.042666 2.432a20.757333 20.757333 0 0 0 20.693334 19.349334h705.173333a20.757333 20.757333 0 0 0 20.757333-20.757334v-7.530666c0-15.168-8.768-28.992-22.528-35.413334L519.893333 648.277333a63.104 63.104 0 0 1-36.330666-57.152v-4.8c0-18.197333 7.338667-35.626667 20.352-48.341333l39.957333-38.997333a136.042667 136.042667 0 0 0 41.024-97.344v-90.752A129.557333 129.557333 0 0 0 455.338667 181.333333z m222.741333 0.149334a155.541333 155.541333 0 0 1 148.501333 150.186666l0.085334 5.205334V405.333333a159.786667 159.786667 0 0 1-45.546667 111.744l-4.48 4.394667-27.008 25.536 208.192 94.485333a94.613333 94.613333 0 0 1 55.061333 76.949334l0.341334 4.565333 0.106666 4.629333a72.341333 72.341333 0 0 1-64.746666 71.957334c-5.546667-29.077333-11.861333-50.282667-18.922667-63.637334l11.328 0.021334a8.32 8.32 0 0 0 8.341333-8.32c0-11.029333-5.909333-21.12-15.317333-26.517334l-2.645333-1.365333-62.933334-28.586667a167.125333 167.125333 0 0 0-15.317333-8.170666l-153.450667-71.893334A55.466667 55.466667 0 0 1 682.666667 551.168c0-16.917333 6.4-33.130667 17.770666-45.504l3.242667-3.264 29.013333-27.413333a95.786667 95.786667 0 0 0 29.824-64.362667L762.666667 405.333333v-68.48a91.562667 91.562667 0 0 0-56.469334-84.586666c-3.626667-15.616-13.013333-39.232-28.117333-70.805334z"  p-id="9862"></path></svg>