<?xml version="1.0" standalone="no"?><!DOCTYPE svg PUBLIC "-//W3C//DTD SVG 1.1//EN" "http://www.w3.org/Graphics/SVG/1.1/DTD/svg11.dtd"><svg t="1623251347989" class="icon" viewBox="0 0 1024 1024" version="1.1" xmlns="http://www.w3.org/2000/svg" p-id="4098" xmlns:xlink="http://www.w3.org/1999/xlink" width="200" height="200"><defs><style type="text/css"></style></defs><path d="M512 42.666667c259.2 0 469.333333 210.133333 469.333333 469.333333s-210.133333 469.333333-469.333333 469.333333S42.666667 771.2 42.666667 512 252.8 42.666667 512 42.666667zM106.666667 512c0 223.850667 181.482667 405.333333 405.333333 405.333333 100.416 0 192.298667-36.522667 263.104-96.981333L491.2 536.448a74.666667 74.666667 0 0 1-21.717333-48.234667L469.333333 483.669333V108.885333C265.514667 130.218667 106.666667 302.549333 106.666667 512z m810.112 21.333333H578.581333l241.770667 241.770667A403.584 403.584 0 0 0 916.778667 533.333333zM533.333333 107.221333V469.333333h381.802667C894.528 272.512 733.034667 117.546667 533.333333 107.242667z"  p-id="4099"></path></svg>