<?xml version="1.0" standalone="no"?><!DOCTYPE svg PUBLIC "-//W3C//DTD SVG 1.1//EN" "http://www.w3.org/Graphics/SVG/1.1/DTD/svg11.dtd"><svg t="1623251613654" class="icon" viewBox="0 0 1024 1024" version="1.1" xmlns="http://www.w3.org/2000/svg" p-id="18654" xmlns:xlink="http://www.w3.org/1999/xlink" width="200" height="200"><defs><style type="text/css"></style></defs><path d="M213.333333 65.386667a85.333333 85.333333 0 0 1 43.904 12.16L859.370667 438.826667a85.333333 85.333333 0 0 1 0 146.346666L257.237333 946.453333A85.333333 85.333333 0 0 1 128 873.28V150.72a85.333333 85.333333 0 0 1 85.333333-85.333333z m0 64a21.333333 21.333333 0 0 0-21.184 18.837333L192 150.72v722.56a21.333333 21.333333 0 0 0 30.101333 19.456l2.197334-1.152L826.453333 530.282667a21.333333 21.333333 0 0 0 2.048-35.178667l-2.048-1.386667L224.298667 132.416A21.333333 21.333333 0 0 0 213.333333 129.386667z"  p-id="18655"></path></svg>