<?xml version="1.0" standalone="no"?><!DOCTYPE svg PUBLIC "-//W3C//DTD SVG 1.1//EN"
        "http://www.w3.org/Graphics/SVG/1.1/DTD/svg11.dtd">
<svg t="1623251358742" class="icon" viewBox="0 0 1024 1024" version="1.1" xmlns="http://www.w3.org/2000/svg" p-id="4788"
     xmlns:xlink="http://www.w3.org/1999/xlink" width="200" height="200">
    <defs>
        <style type="text/css"></style>
    </defs>
    <path d="M512 42.666667c259.2 0 469.333333 210.133333 469.333333 469.333333s-210.133333 469.333333-469.333333 469.333333S42.666667 771.2 42.666667 512 252.8 42.666667 512 42.666667z m0 64C288.149333 106.666667 106.666667 288.149333 106.666667 512s181.482667 405.333333 405.333333 405.333333 405.333333-181.482667 405.333333-405.333333S735.850667 106.666667 512 106.666667z m10.666667 586.666666a42.666667 42.666667 0 1 1 0 85.333334 42.666667 42.666667 0 0 1 0-85.333334zM512 277.333333a149.333333 149.333333 0 0 1 42.688 292.48L554.666667 652.8a8.533333 8.533333 0 0 1-8.533334 8.533333h-46.933333a8.533333 8.533333 0 0 1-8.533333-8.533333v-132.266667c0-4.693333 3.84-8.533333 8.533333-8.533333H533.333333c37.013333-9.322667 64-45.44 64-85.333333a85.333333 85.333333 0 0 0-168.96-17.024c-0.469333 2.282667-0.853333 5.354667-1.194666 9.216a8.533333 8.533333 0 0 1-8.490667 7.808h-47.082667a8.533333 8.533333 0 0 1-8.533333-9.024 153.6 153.6 0 0 1 1.088-12.224A149.376 149.376 0 0 1 512 277.333333z"
          p-id="4789"></path>
</svg>