<?xml version="1.0" standalone="no"?><!DOCTYPE svg PUBLIC "-//W3C//DTD SVG 1.1//EN" "http://www.w3.org/Graphics/SVG/1.1/DTD/svg11.dtd"><svg t="1623251593967" class="icon" viewBox="0 0 1024 1024" version="1.1" xmlns="http://www.w3.org/2000/svg" p-id="17425" xmlns:xlink="http://www.w3.org/1999/xlink" width="200" height="200"><defs><style type="text/css"></style></defs><path d="M789.333333 42.666667a128 128 0 0 1 128 128v682.666666a128 128 0 0 1-128 128H234.666667a128 128 0 0 1-128-128V170.666667a128 128 0 0 1 128-128h554.666666z m0 64H234.666667a64 64 0 0 0-63.893334 60.245333L170.666667 170.666667v682.666666a64 64 0 0 0 60.245333 63.893334L234.666667 917.333333h554.666666a64 64 0 0 0 63.893334-60.245333L853.333333 853.333333V170.666667a64 64 0 0 0-60.245333-63.893334L789.333333 106.666667z"  p-id="17426"></path><path d="M512 405.333333c158.08 0 301.269333-63.658667 405.333333-166.762666v86.058666A637.354667 637.354667 0 0 1 512 469.333333a637.354667 637.354667 0 0 1-405.376-144.725333v-86.08A574.165333 574.165333 0 0 0 512 405.333333z"  p-id="17427"></path></svg>