<?xml version="1.0" standalone="no"?><!DOCTYPE svg PUBLIC "-//W3C//DTD SVG 1.1//EN" "http://www.w3.org/Graphics/SVG/1.1/DTD/svg11.dtd"><svg t="1623251404445" class="icon" viewBox="0 0 1024 1024" version="1.1" xmlns="http://www.w3.org/2000/svg" p-id="7388" xmlns:xlink="http://www.w3.org/1999/xlink" width="200" height="200"><defs><style type="text/css"></style></defs><path d="M128 669.866667v154.133333a72 72 0 0 0 67.776 71.893333l4.224 0.106667H354.133333c4.693333 0 8.533333 3.84 8.533334 8.533333v46.933334a8.533333 8.533333 0 0 1-8.533334 8.533333H205.482667A141.482667 141.482667 0 0 1 64 818.517333V669.866667c0-4.693333 3.84-8.533333 8.533333-8.533334h46.933334c4.693333 0 8.533333 3.84 8.533333 8.533334z m832 0v148.650666A141.482667 141.482667 0 0 1 818.517333 960H669.866667a8.533333 8.533333 0 0 1-8.533334-8.533333v-46.933334c0-4.693333 3.84-8.533333 8.533334-8.533333h154.133333a72 72 0 0 0 71.893333-67.776l0.106667-4.224V669.866667c0-4.693333 3.84-8.533333 8.533333-8.533334h46.933334c4.693333 0 8.533333 3.84 8.533333 8.533334z m0-170.666667v46.933333a8.533333 8.533333 0 0 1-8.533333 8.533334H72.533333a8.533333 8.533333 0 0 1-8.533333-8.533334v-46.933333c0-4.693333 3.84-8.533333 8.533333-8.533333h878.933334c4.693333 0 8.533333 3.84 8.533333 8.533333z m-597.333333-426.666667v46.933334a8.533333 8.533333 0 0 1-8.533334 8.533333H200a72 72 0 0 0-71.893333 67.776L128 200V354.133333a8.533333 8.533333 0 0 1-8.533333 8.533334H72.533333a8.533333 8.533333 0 0 1-8.533333-8.533334V205.482667A141.482667 141.482667 0 0 1 205.482667 64H354.133333c4.693333 0 8.533333 3.84 8.533334 8.533333zM818.517333 64A141.482667 141.482667 0 0 1 960 205.482667V354.133333a8.533333 8.533333 0 0 1-8.533333 8.533334h-46.933334a8.533333 8.533333 0 0 1-8.533333-8.533334V200a72 72 0 0 0-67.776-71.893333L824 128H669.866667a8.533333 8.533333 0 0 1-8.533334-8.533333V72.533333c0-4.693333 3.84-8.533333 8.533334-8.533333h148.650666z"  p-id="7389"></path></svg>