<?xml version="1.0" standalone="no"?><!DOCTYPE svg PUBLIC "-//W3C//DTD SVG 1.1//EN" "http://www.w3.org/Graphics/SVG/1.1/DTD/svg11.dtd"><svg t="1623251325290" class="icon" viewBox="0 0 1024 1024" version="1.1" xmlns="http://www.w3.org/2000/svg" p-id="3132" xmlns:xlink="http://www.w3.org/1999/xlink" width="200" height="200"><defs><style type="text/css"></style></defs><path d="M512 42.666667c259.2 0 469.333333 210.133333 469.333333 469.333333s-210.133333 469.333333-469.333333 469.333333S42.666667 771.2 42.666667 512 252.8 42.666667 512 42.666667z m0 64C288.149333 106.666667 106.666667 288.149333 106.666667 512s181.482667 405.333333 405.333333 405.333333 405.333333-181.482667 405.333333-405.333333S735.850667 106.666667 512 106.666667z m236.714667 256a8.533333 8.533333 0 0 1 6.037333 14.570666L495.616 636.373333c-5.461333 5.461333-12.416 8.533333-19.562667 9.237334l-3.050666 0.149333c-8.192 0-16.384-3.136-22.634667-9.386667l-152.448-152.469333a8.533333 8.533333 0 0 1 6.037333-14.570667h66.346667a8.533333 8.533333 0 0 1 6.016 2.496l96.661333 96.64 203.349334-203.306666a8.533333 8.533333 0 0 1 6.037333-2.496h66.346667z"  p-id="3133"></path></svg>