<?xml version="1.0" standalone="no"?><!DOCTYPE svg PUBLIC "-//W3C//DTD SVG 1.1//EN"
        "http://www.w3.org/Graphics/SVG/1.1/DTD/svg11.dtd">
<svg t="1623251558326" class="icon" viewBox="0 0 1024 1024" version="1.1" xmlns="http://www.w3.org/2000/svg"
     p-id="15088" xmlns:xlink="http://www.w3.org/1999/xlink" width="200" height="200">
    <defs>
        <style type="text/css"></style>
    </defs>
    <path d="M555.392 64a8.533333 8.533333 0 0 1 6.037333 14.570667l-46.933333 46.933333a8.533333 8.533333 0 0 1-6.058667 2.496H234.666667a106.666667 106.666667 0 0 0-106.56 102.037333L128 234.666667v554.666666a106.666667 106.666667 0 0 0 102.037333 106.56L234.666667 896h554.666666a106.666667 106.666667 0 0 0 106.56-102.037333L896 789.333333V515.541333a8.533333 8.533333 0 0 1 2.496-6.037333l46.933333-46.933333a8.533333 8.533333 0 0 1 14.570667 6.037333V789.333333a170.666667 170.666667 0 0 1-170.666667 170.666667H234.666667a170.666667 170.666667 0 0 1-170.666667-170.666667V234.666667a170.666667 170.666667 0 0 1 170.666667-170.666667h320.725333zM928 64A32 32 0 0 1 960 96v241.792a8.533333 8.533333 0 0 1-2.496 6.037333l-46.933333 46.933334a8.533333 8.533333 0 0 1-14.570667-6.037334V162.581333L547.2 511.381333a8.533333 8.533333 0 0 1-12.074667 0l-33.173333-33.194666a8.533333 8.533333 0 0 1 0-12.074667L840.064 128h-200.789333a8.533333 8.533333 0 0 1-6.037334-14.570667l46.933334-46.933333A8.533333 8.533333 0 0 1 686.208 64H928z"
          p-id="15089"></path>
</svg>