<?xml version="1.0" standalone="no"?><!DOCTYPE svg PUBLIC "-//W3C//DTD SVG 1.1//EN" "http://www.w3.org/Graphics/SVG/1.1/DTD/svg11.dtd"><svg t="1623251611769" class="icon" viewBox="0 0 1024 1024" version="1.1" xmlns="http://www.w3.org/2000/svg" p-id="18518" xmlns:xlink="http://www.w3.org/1999/xlink" width="200" height="200"><defs><style type="text/css"></style></defs><path d="M938.666667 832a128 128 0 0 1-128 128H213.333333a128 128 0 0 1-128-128V192a128 128 0 0 1 128-128h597.333334a128 128 0 0 1 128 128v640z m-64-64H149.333333v64a64 64 0 0 0 60.245334 63.893333L213.333333 896h597.333334a64 64 0 0 0 63.893333-60.245333L874.666667 832v-64zM810.666667 128H213.333333a64 64 0 0 0-63.893333 60.245333L149.333333 192v512h725.333334V192a64 64 0 0 0-60.245334-63.893333L810.666667 128z m-405.333334 93.866667V277.333333a106.666667 106.666667 0 0 0 102.037334 106.56L512 384a106.666667 106.666667 0 0 0 106.56-102.037333L618.666667 277.333333v-55.466666c0-4.693333 3.84-8.533333 8.533333-8.533334h46.933333c4.693333 0 8.533333 3.84 8.533334 8.533334V277.333333a170.666667 170.666667 0 1 1-341.333334 0v-55.466666c0-4.693333 3.84-8.533333 8.533334-8.533334h46.933333c4.693333 0 8.533333 3.84 8.533333 8.533334z"  p-id="18519"></path></svg>