<?xml version="1.0" standalone="no"?><!DOCTYPE svg PUBLIC "-//W3C//DTD SVG 1.1//EN"
        "http://www.w3.org/Graphics/SVG/1.1/DTD/svg11.dtd">
<svg t="1623251606404" class="icon" viewBox="0 0 1024 1024" version="1.1" xmlns="http://www.w3.org/2000/svg"
     p-id="18108" xmlns:xlink="http://www.w3.org/1999/xlink" width="200" height="200">
    <defs>
        <style type="text/css"></style>
    </defs>
    <path d="M874.666667 64a85.333333 85.333333 0 0 1 85.333333 85.333333v192a85.333333 85.333333 0 0 1-85.333333 85.333334h-64v448a85.333333 85.333333 0 0 1-85.333334 85.333333H298.666667a85.333333 85.333333 0 0 1-85.333334-85.333333V426.666667H149.333333a85.333333 85.333333 0 0 1-85.333333-85.333334V149.333333a85.333333 85.333333 0 0 1 85.333333-85.333333h725.333334z m-128 234.666667H277.333333v576a21.333333 21.333333 0 0 0 18.837334 21.184L298.666667 896h426.666666a21.333333 21.333333 0 0 0 21.184-18.837333L746.666667 874.666667V298.666667z m-153.216 108.8l33.194666 33.194666a8.533333 8.533333 0 0 1 0 12.074667L567.36 512H642.133333c4.693333 0 8.533333 3.84 8.533334 8.533333v46.933334a8.533333 8.533333 0 0 1-8.533334 8.533333h-98.133333v42.666667h98.133333c4.693333 0 8.533333 3.84 8.533334 8.533333v46.933333a8.533333 8.533333 0 0 1-8.533334 8.533334h-98.133333v98.133333a8.533333 8.533333 0 0 1-8.533333 8.533333h-46.933334a8.533333 8.533333 0 0 1-8.533333-8.533333V682.666667h-98.133333a8.533333 8.533333 0 0 1-8.533334-8.533334v-46.933333c0-4.693333 3.84-8.533333 8.533334-8.533333h98.133333v-42.666667h-98.133333a8.533333 8.533333 0 0 1-8.533334-8.533333v-46.933334c0-4.693333 3.84-8.533333 8.533334-8.533333h74.752l-59.264-59.264a8.533333 8.533333 0 0 1 0-12.074667l33.194666-33.173333a8.533333 8.533333 0 0 1 12.053334 0L512 476.864l69.418667-69.376a8.533333 8.533333 0 0 1 12.053333 0zM874.666667 128H149.333333a21.333333 21.333333 0 0 0-21.184 18.837333L128 149.333333v192a21.333333 21.333333 0 0 0 18.837333 21.184L149.333333 362.666667h64v-106.666667a21.333333 21.333333 0 0 1 21.333334-21.333333h554.666666a21.333333 21.333333 0 0 1 21.333334 21.333333v106.666667h64a21.333333 21.333333 0 0 0 21.184-18.837334L896 341.333333V149.333333a21.333333 21.333333 0 0 0-18.837333-21.184L874.666667 128z"
          p-id="18109"></path>
</svg>