<?xml version="1.0" standalone="no"?><!DOCTYPE svg PUBLIC "-//W3C//DTD SVG 1.1//EN" "http://www.w3.org/Graphics/SVG/1.1/DTD/svg11.dtd"><svg t="1623251294899" class="icon" viewBox="0 0 1024 1024" version="1.1" xmlns="http://www.w3.org/2000/svg" p-id="2442" xmlns:xlink="http://www.w3.org/1999/xlink" width="200" height="200"><defs><style type="text/css"></style></defs><path d="M384 554.666667a85.333333 85.333333 0 0 1 85.333333 85.333333v234.666667a85.333333 85.333333 0 0 1-85.333333 85.333333H149.333333a85.333333 85.333333 0 0 1-85.333333-85.333333V640a85.333333 85.333333 0 0 1 85.333333-85.333333h234.666667z m226.133333 277.333333c4.693333 0 8.533333 3.84 8.533334 8.533333V896h183.466666c4.693333 0 8.533333 3.84 8.533334 8.533333v46.933334a8.533333 8.533333 0 0 1-8.533334 8.533333H563.2a8.533333 8.533333 0 0 1-8.533333-8.533333v-110.933334c0-4.693333 3.84-8.533333 8.533333-8.533333h46.933333z m341.333334 0c4.693333 0 8.533333 3.84 8.533333 8.533333v110.933334a8.533333 8.533333 0 0 1-8.533333 8.533333h-46.933334a8.533333 8.533333 0 0 1-8.533333-8.533333v-110.933334c0-4.693333 3.84-8.533333 8.533333-8.533333h46.933334zM384 618.666667H149.333333a21.333333 21.333333 0 0 0-21.184 18.837333L128 640v234.666667a21.333333 21.333333 0 0 0 18.837333 21.184L149.333333 896h234.666667a21.333333 21.333333 0 0 0 21.184-18.837333L405.333333 874.666667V640a21.333333 21.333333 0 0 0-18.837333-21.184L384 618.666667z m418.133333 149.333333c4.693333 0 8.533333 3.84 8.533334 8.533333v46.933334a8.533333 8.533333 0 0 1-8.533334 8.533333h-46.933333a8.533333 8.533333 0 0 1-8.533333-8.533333v-46.933334c0-4.693333 3.84-8.533333 8.533333-8.533333h46.933333zM298.666667 704a21.333333 21.333333 0 0 1 21.333333 21.333333v64a21.333333 21.333333 0 0 1-21.333333 21.333334h-64a21.333333 21.333333 0 0 1-21.333334-21.333334v-64a21.333333 21.333333 0 0 1 21.333334-21.333333h64z m503.466666-149.333333c4.693333 0 8.533333 3.84 8.533334 8.533333v46.933333a8.533333 8.533333 0 0 1-8.533334 8.533334H618.666667v64h119.466666c4.693333 0 8.533333 3.84 8.533334 8.533333v46.933333a8.533333 8.533333 0 0 1-8.533334 8.533334h-174.933333a8.533333 8.533333 0 0 1-8.533333-8.533334v-174.933333c0-4.693333 3.84-8.533333 8.533333-8.533333h238.933333z m149.333334 128c4.693333 0 8.533333 3.84 8.533333 8.533333v46.933333a8.533333 8.533333 0 0 1-8.533333 8.533334h-132.266667a8.533333 8.533333 0 0 1-8.533333-8.533334v-46.933333c0-4.693333 3.84-8.533333 8.533333-8.533333h132.266667z m0-128c4.693333 0 8.533333 3.84 8.533333 8.533333v46.933333a8.533333 8.533333 0 0 1-8.533333 8.533334h-46.933334a8.533333 8.533333 0 0 1-8.533333-8.533334v-46.933333c0-4.693333 3.84-8.533333 8.533333-8.533333h46.933334zM384 64a85.333333 85.333333 0 0 1 85.333333 85.333333v234.666667a85.333333 85.333333 0 0 1-85.333333 85.333333H149.333333a85.333333 85.333333 0 0 1-85.333333-85.333333V149.333333a85.333333 85.333333 0 0 1 85.333333-85.333333h234.666667z m490.666667 0a85.333333 85.333333 0 0 1 85.333333 85.333333v234.666667a85.333333 85.333333 0 0 1-85.333333 85.333333H640a85.333333 85.333333 0 0 1-85.333333-85.333333V149.333333a85.333333 85.333333 0 0 1 85.333333-85.333333h234.666667zM384 128H149.333333a21.333333 21.333333 0 0 0-21.184 18.837333L128 149.333333v234.666667a21.333333 21.333333 0 0 0 18.837333 21.184L149.333333 405.333333h234.666667a21.333333 21.333333 0 0 0 21.184-18.837333L405.333333 384V149.333333a21.333333 21.333333 0 0 0-18.837333-21.184L384 128z m490.666667 0H640a21.333333 21.333333 0 0 0-21.184 18.837333L618.666667 149.333333v234.666667a21.333333 21.333333 0 0 0 18.837333 21.184L640 405.333333h234.666667a21.333333 21.333333 0 0 0 21.184-18.837333L896 384V149.333333a21.333333 21.333333 0 0 0-18.837333-21.184L874.666667 128z m-576 85.333333a21.333333 21.333333 0 0 1 21.333333 21.333334v64a21.333333 21.333333 0 0 1-21.333333 21.333333h-64a21.333333 21.333333 0 0 1-21.333334-21.333333v-64a21.333333 21.333333 0 0 1 21.333334-21.333334h64z m490.666666 0a21.333333 21.333333 0 0 1 21.333334 21.333334v64a21.333333 21.333333 0 0 1-21.333334 21.333333h-64a21.333333 21.333333 0 0 1-21.333333-21.333333v-64a21.333333 21.333333 0 0 1 21.333333-21.333334h64z"  p-id="2443"></path></svg>