<?xml version="1.0" standalone="no"?><!DOCTYPE svg PUBLIC "-//W3C//DTD SVG 1.1//EN"
        "http://www.w3.org/Graphics/SVG/1.1/DTD/svg11.dtd">
<svg t="1623251587361" class="icon" viewBox="0 0 1024 1024" version="1.1" xmlns="http://www.w3.org/2000/svg"
     p-id="17013" xmlns:xlink="http://www.w3.org/1999/xlink" width="200" height="200">
    <defs>
        <style type="text/css"></style>
    </defs>
    <path d="M832 128a128 128 0 0 1 128 128v512a128 128 0 0 1-128 128H356.416a170.666667 170.666667 0 0 1-149.184-87.786667l-118.528-213.333333a170.666667 170.666667 0 0 1 0-165.76l118.528-213.333333A170.666667 170.666667 0 0 1 356.416 128H832z m0 64H356.416a106.666667 106.666667 0 0 0-90.688 50.517333l-2.56 4.352-118.506667 213.333334a106.666667 106.666667 0 0 0-2.56 98.709333l2.56 4.906667 118.506667 213.333333a106.666667 106.666667 0 0 0 88.213333 54.72l5.034667 0.128H832a64 64 0 0 0 63.893333-60.245333L896 768V256a64 64 0 0 0-60.245333-63.893333L832 192z m-356.309333 192a8.533333 8.533333 0 0 1 6.037333 2.496l82.026667 82.026667 82.026666-82.026667a8.533333 8.533333 0 0 1 6.037334-2.496h66.368a8.533333 8.533333 0 0 1 6.037333 14.570667l-115.221333 115.2 111.68 111.658666a8.533333 8.533333 0 0 1-6.037334 14.570667h-66.389333a8.533333 8.533333 0 0 1-6.037333-2.496l-78.464-78.464-78.485334 78.464a8.533333 8.533333 0 0 1-6.037333 2.496h-66.346667a8.533333 8.533333 0 0 1-6.016-14.570667l111.616-111.658666-115.2-115.2a8.533333 8.533333 0 0 1 6.058667-14.570667h66.346667z"
          p-id="17014"></path>
</svg>