<?xml version="1.0" standalone="no"?><!DOCTYPE svg PUBLIC "-//W3C//DTD SVG 1.1//EN"
        "http://www.w3.org/Graphics/SVG/1.1/DTD/svg11.dtd">
<svg t="1623251534092" class="icon" viewBox="0 0 1024 1024" version="1.1" xmlns="http://www.w3.org/2000/svg"
     p-id="13990" xmlns:xlink="http://www.w3.org/1999/xlink" width="200" height="200">
    <defs>
        <style type="text/css"></style>
    </defs>
    <path d="M311.466667 64c4.693333 0 8.533333 3.84 8.533333 8.533333v46.933334a8.533333 8.533333 0 0 1-8.533333 8.533333H234.666667a106.666667 106.666667 0 0 0-106.56 102.037333L128 234.666667v554.666666a106.666667 106.666667 0 0 0 102.037333 106.56L234.666667 896h554.666666a106.666667 106.666667 0 0 0 106.56-102.037333L896 789.333333V234.666667a106.666667 106.666667 0 0 0-102.037333-106.56L789.333333 128h-55.466666a8.533333 8.533333 0 0 1-8.533334-8.533333V72.533333c0-4.693333 3.84-8.533333 8.533334-8.533333H789.333333a170.666667 170.666667 0 0 1 170.666667 170.666667v554.666666a170.666667 170.666667 0 0 1-170.666667 170.666667H234.666667a170.666667 170.666667 0 0 1-170.666667-170.666667V234.666667a170.666667 170.666667 0 0 1 170.666667-170.666667h76.8z m212.138666 0l2.517334 0.298667c4.138667 0.746667 8.106667 2.709333 11.306666 5.909333l185.386667 185.386667a8.533333 8.533333 0 0 1 2.517333 6.058666v66.368a8.533333 8.533333 0 0 1-14.570666 6.037334L554.666667 177.962667V632.96a8.533333 8.533333 0 0 1-8.533334 8.533333h-46.933333a8.533333 8.533333 0 0 1-8.533333-8.533333V177.322667l-156.096 156.096a8.533333 8.533333 0 0 1-14.570667-6.037334v-66.346666a8.533333 8.533333 0 0 1 2.496-6.037334l184.768-184.789333A21.248 21.248 0 0 1 521.088 64h2.517333z"
          p-id="13991"></path>
</svg>