<?xml version="1.0" standalone="no"?><!DOCTYPE svg PUBLIC "-//W3C//DTD SVG 1.1//EN" "http://www.w3.org/Graphics/SVG/1.1/DTD/svg11.dtd"><svg t="1623251456745" class="icon" viewBox="0 0 1024 1024" version="1.1" xmlns="http://www.w3.org/2000/svg" p-id="9585" xmlns:xlink="http://www.w3.org/1999/xlink" width="200" height="200"><defs><style type="text/css"></style></defs><path d="M585.173333 180.437333a85.333333 85.333333 0 0 1 12.16 43.904v573.226667a85.333333 85.333333 0 0 1-129.237333 73.173333L296.853333 768 192 768a85.333333 85.333333 0 0 1-85.333333-85.333333V341.333333a85.333333 85.333333 0 0 1 85.333333-85.333333h101.376l174.72-104.832a85.333333 85.333333 0 0 1 117.077333 29.269333z m242.858667 30.656l0.042667 0.085334a722.773333 722.773333 0 0 1 69.653333 310.442666 722.773333 722.773333 0 0 1-69.653333 310.464 8.533333 8.533333 0 0 1-11.456 4.010667 31057561.877333 31057561.877333 0 0 1-27.818667-13.525333l-14.4-7.04a8.533333 8.533333 0 0 1-3.989333-11.306667 659.072 659.072 0 0 0 63.317333-282.602667 658.986667 658.986667 0 0 0-63.296-282.602666 8.533333 8.533333 0 0 1 3.968-11.306667l14.293333-6.976 16.213334-7.872 11.712-5.717333a8.533333 8.533333 0 0 1 11.413333 3.946666z m-324.8-6.186666l-2.218667 1.152-189.909333 113.92L192 320a21.333333 21.333333 0 0 0-21.184 18.837333L170.666667 341.333333v341.333334a21.333333 21.333333 0 0 0 18.837333 21.184L192 704h122.581333l186.453334 111.872a21.333333 21.333333 0 0 0 32.149333-15.786667l0.149333-2.496v-573.226666a21.333333 21.333333 0 0 0-1.706666-8.426667l-1.344-2.56a21.333333 21.333333 0 0 0-27.050667-8.490667z m209.685333 62.229333l0.042667 0.085333a595.221333 595.221333 0 0 1 56.746667 254.4c0 84.16-17.386667 164.245333-48.789334 236.864-1.856 4.266667-4.501333 10.112-7.978666 17.493334a8.533333 8.533333 0 0 1-11.456 4.053333l-14.890667-7.253333-16.576-8.064-10.752-5.226667a8.533333 8.533333 0 0 1-3.989333-11.285333c3.477333-7.466667 6.144-13.354667 7.978666-17.685334a531.626667 531.626667 0 0 0 42.453334-208.896 531.541333 531.541333 0 0 0-50.432-226.581333 8.533333 8.533333 0 0 1 3.989333-11.306667c3.072-1.493333 5.546667-2.709333 7.509333-3.626666l27.349334-13.333334 7.381333-3.584a8.533333 8.533333 0 0 1 11.413333 3.946667z"  p-id="9586"></path></svg>