<?xml version="1.0" standalone="no"?><!DOCTYPE svg PUBLIC "-//W3C//DTD SVG 1.1//EN"
        "http://www.w3.org/Graphics/SVG/1.1/DTD/svg11.dtd">
<svg t="1623251620667" class="icon" viewBox="0 0 1024 1024" version="1.1" xmlns="http://www.w3.org/2000/svg"
     p-id="19068" xmlns:xlink="http://www.w3.org/1999/xlink" width="200" height="200">
    <defs>
        <style type="text/css"></style>
    </defs>
    <path d="M787.584 164.138667a85.333333 85.333333 0 0 1 1.493333 15.936v13.653333A128.042667 128.042667 0 0 1 896 320v88.021333c36.821333 9.493333 64 42.88 64 82.645334v149.333333a85.376 85.376 0 0 1-64 82.645333V810.666667a128 128 0 0 1-128 128H192a128 128 0 0 1-128-128V320a128 128 0 0 1 127.744-128v-1.429333L687.829333 96.213333a85.333333 85.333333 0 0 1 99.776 67.904zM768 256H192a64 64 0 0 0-63.893333 60.245333L128 320v490.666667a64 64 0 0 0 60.245333 63.893333L192 874.666667h576a64 64 0 0 0 63.893333-60.245334L832 810.666667v-85.333334h-181.333333a160 160 0 0 1 0-320H832v-85.333333a64 64 0 0 0-60.245333-63.893333L768 256z m106.666667 213.333333H650.666667a96 96 0 0 0-4.522667 191.893334L650.666667 661.333333H874.666667a21.333333 21.333333 0 0 0 21.184-18.837333L896 640v-149.333333a21.333333 21.333333 0 0 0-18.837333-21.184L874.666667 469.333333z m-224 64a32 32 0 1 1 0 64 32 32 0 0 1 0-64z m51.584-374.549333l-2.474667 0.341333-172.949333 32.853334h198.229333v-12.906667l-0.341333-2.986667a21.333333 21.333333 0 0 0-22.464-17.28z"
          p-id="19069"></path>
</svg>