<?xml version="1.0" standalone="no"?><!DOCTYPE svg PUBLIC "-//W3C//DTD SVG 1.1//EN" "http://www.w3.org/Graphics/SVG/1.1/DTD/svg11.dtd"><svg t="1623251608192" class="icon" viewBox="0 0 1024 1024" version="1.1" xmlns="http://www.w3.org/2000/svg" p-id="18244" xmlns:xlink="http://www.w3.org/1999/xlink" width="200" height="200"><defs><style type="text/css"></style></defs><path d="M789.333333 64a170.666667 170.666667 0 0 1 170.666667 170.666667v311.466666a8.533333 8.533333 0 0 1-8.533333 8.533334h-46.933334a8.533333 8.533333 0 0 1-8.533333-8.533334V234.666667a106.666667 106.666667 0 0 0-102.037333-106.56L789.333333 128H234.666667a106.666667 106.666667 0 0 0-106.56 102.037333L128 234.666667v554.666666a106.666667 106.666667 0 0 0 102.037333 106.56L234.666667 896h311.466666c4.693333 0 8.533333 3.84 8.533334 8.533333v46.933334a8.533333 8.533333 0 0 1-8.533334 8.533333H234.666667a170.666667 170.666667 0 0 1-170.666667-170.666667V234.666667a170.666667 170.666667 0 0 1 170.666667-170.666667h554.666666z m85.333334 554.666667a85.333333 85.333333 0 0 1 85.333333 85.333333v170.666667a85.333333 85.333333 0 0 1-85.333333 85.333333h-170.666667a85.333333 85.333333 0 0 1-85.333333-85.333333v-170.666667a85.333333 85.333333 0 0 1 85.333333-85.333333h170.666667z m0 64h-170.666667a21.333333 21.333333 0 0 0-21.184 18.837333L682.666667 704v170.666667a21.333333 21.333333 0 0 0 18.837333 21.184L704 896h170.666667a21.333333 21.333333 0 0 0 21.184-18.837333L896 874.666667v-170.666667a21.333333 21.333333 0 0 0-18.837333-21.184L874.666667 682.666667zM460.8 192c4.693333 0 8.533333 3.84 8.533333 8.533333v46.933334a8.533333 8.533333 0 0 1-8.533333 8.533333h-159.530667l229.162667 229.184-45.248 45.248L256 301.269333V460.8a8.533333 8.533333 0 0 1-8.533333 8.533333H200.533333a8.533333 8.533333 0 0 1-8.533333-8.533333V256a64 64 0 0 1 60.245333-63.893333L256 192h204.8z"  p-id="18245"></path></svg>